<svg width="49" height="49" fill="none" xmlns="http://www.w3.org/2000/svg"><path d="M24.13 42.33c9.884 0 17.896-7.906 17.896-17.658 0-9.752-8.012-17.657-17.896-17.657S6.233 14.92 6.233 24.672c0 9.752 8.013 17.657 17.897 17.657Z" fill="#607987" fill-opacity=".1"/><path d="m33.684 21.666-6.018-.863-2.692-5.38a.943.943 0 0 0-.845-.519c-.358 0-.686.201-.844.518l-2.692 5.381-6.018.863c-.771.11-1.08 1.048-.522 1.585l4.355 4.188-1.028 5.914c-.132.758.676 1.338 1.367.98l5.382-2.792 5.383 2.792c.687.356 1.5-.22 1.367-.98l-1.028-5.914 4.355-4.188c.558-.536.25-1.474-.522-1.585Zm-5.503 4.783a.922.922 0 0 0-.27.823l.789 4.54-4.132-2.143a.954.954 0 0 0-.877 0l-4.132 2.143.79-4.54a.922.922 0 0 0-.272-.823l-3.343-3.215 4.62-.662a.941.941 0 0 0 .71-.508l2.065-4.13 2.066 4.13a.94.94 0 0 0 .71.508l4.62.663-3.344 3.214Z" fill="#4E6575"/><path d="M48.148 24.673c0-.826-.389-1.533-.732-2.157-.574-1.044-.595-1.137-.33-2.344.152-.685.323-1.463.096-2.235-.39-1.323-1.748-2.043-2.091-2.79-.35-.764-.01-2.253-.752-3.401-.745-1.153-2.256-1.468-2.796-2.09-.544-.624-.643-2.156-1.68-3.052-1.04-.899-2.575-.777-3.274-1.225-.696-.446-1.218-1.888-2.476-2.461-.743-.339-1.545-.281-2.253-.23-1.22.088-1.303.062-2.267-.658-.572-.427-1.22-.912-2.045-1.03-.803-.113-1.551.166-2.211.413-1.154.43-1.26.43-2.414 0-.66-.247-1.409-.526-2.212-.412-.824.117-1.473.602-2.045 1.03-.962.718-1.046.745-2.267.657-.708-.051-1.51-.109-2.253.23-.75.342-1.232.986-1.658 1.555-.725.97-.802 1.019-1.99 1.276-.695.15-1.482.32-2.101.855-.619.534-.899 1.284-1.146 1.947-.425 1.139-.487 1.21-1.553 1.786-.625.338-1.334.721-1.778 1.409-.742 1.147-.402 2.64-.752 3.4-.343.747-1.702 1.471-2.09 2.79-.383 1.3.365 2.642.246 3.474-.114.8-1.213 1.885-1.213 3.262 0 1.38 1.098 2.461 1.213 3.263.12.84-.63 2.17-.247 3.473.39 1.323 1.748 2.043 2.091 2.79.35.763.01 2.253.752 3.401.745 1.153 2.256 1.468 2.796 2.09.544.624.643 2.156 1.68 3.052 1.04.899 2.575.777 3.274 1.225.696.446 1.218 1.888 2.476 2.461 1.247.568 2.69.022 3.49.256.785.229 1.698 1.466 3.075 1.661.778.11 1.492-.143 2.212-.412 1.154-.43 1.259-.43 2.413 0 .66.247 1.409.526 2.212.412 1.376-.195 2.295-1.434 3.076-1.661.803-.235 2.239.314 3.49-.256 1.259-.574 1.78-2.015 2.475-2.46.697-.448 2.235-.329 3.273-1.225 1.038-.897 1.138-2.43 1.68-3.054.543-.622 2.051-.935 2.797-2.089.742-1.147.403-2.64.752-3.4.343-.747 1.702-1.47 2.09-2.79.383-1.3-.365-2.642-.246-3.474.114-.8 1.213-1.885 1.213-3.262Zm-3.079 3.003c-.175 1.228.502 2.542.304 3.214-.205.696-1.48 1.414-1.998 2.542-.523 1.138-.235 2.567-.624 3.168-.39.603-1.817.936-2.637 1.877-.821.943-.949 2.396-1.493 2.866-.536.463-2.005.39-3.059 1.065-1.047.672-1.586 2.035-2.239 2.332-.642.292-2.023-.193-3.234.16-1.185.347-2.096 1.503-2.81 1.605-.682.098-1.887-.757-3.15-.757-1.273 0-2.46.856-3.15.757-.342-.049-.747-.352-1.176-.672-.95-.71-1.528-1.069-2.715-1.069-.834 0-1.702.181-2.152-.024-.654-.298-1.189-1.659-2.24-2.332-1.053-.676-2.521-.6-3.058-1.065-.546-.471-.67-1.92-1.493-2.866-.82-.942-2.246-1.273-2.637-1.877-.387-.598-.103-2.034-.624-3.168-.518-1.128-1.793-1.845-1.998-2.542-.198-.675.48-1.977.303-3.215-.174-1.222-1.194-2.264-1.194-3.002 0-.739 1.02-1.78 1.194-3.003.176-1.229-.5-2.543-.303-3.215.205-.696 1.48-1.414 1.998-2.542.523-1.138.235-2.566.624-3.168.39-.603 1.817-.935 2.637-1.877.821-.943.949-2.396 1.493-2.866.536-.463 2.005-.389 3.059-1.065 1.047-.672 1.586-2.034 2.239-2.332.638-.29 2.028.192 3.234-.16 1.185-.346 2.096-1.503 2.81-1.604.686-.098 1.885.756 3.15.756 1.27 0 2.46-.855 3.15-.756.723.102 1.608 1.253 2.81 1.604 1.2.35 2.596-.13 3.234.16.653.298 1.188 1.659 2.238 2.332 1.054.676 2.522.601 3.06 1.065.545.471.668 1.92 1.492 2.866.82.943 2.247 1.273 2.637 1.877.387.598.103 2.034.624 3.168.518 1.128 1.792 1.846 1.998 2.542.198.675-.48 1.977-.303 3.215.174 1.222 1.194 2.264 1.194 3.003 0 .738-1.02 1.779-1.195 3.003Z" fill="#4E6575"/></svg>