<svg xmlns="http://www.w3.org/2000/svg" xmlns:xlink="http://www.w3.org/1999/xlink" viewBox="0 0 1195.25 1319.28"><defs><style>.cls-1{fill:#020230;opacity:0.1;}.cls-1,.cls-10{isolation:isolate;}.cls-2{fill:url(#linear-gradient);}.cls-3{fill:url(#linear-gradient-2);}.cls-4{fill:url(#linear-gradient-3);}.cls-5{fill:#fff;}.cls-10,.cls-6{opacity:0.4;}.cls-10,.cls-7{fill:#06033e;}.cls-8{fill:url(#linear-gradient-4);}.cls-9{fill:url(#linear-gradient-5);}.cls-11{fill:#f4f4f4;}.cls-12{fill:url(#linear-gradient-6);}.cls-13{fill:url(#linear-gradient-7);}.cls-14{opacity:0.3;}</style><linearGradient id="linear-gradient" x1="408.08" y1="-11533.32" x2="1147.4" y2="-11546.24" gradientTransform="matrix(1, 0, 0, -1, 0, -11012.83)" gradientUnits="userSpaceOnUse"><stop offset="0" stop-color="#ffcf67"/><stop offset="1" stop-color="#931914"/></linearGradient><linearGradient id="linear-gradient-2" x1="0.17" y1="-11896.75" x2="978.54" y2="-11896.75" gradientTransform="matrix(1, 0, 0, -1, 0, -11012.83)" gradientUnits="userSpaceOnUse"><stop offset="0" stop-color="#ffcf67"/><stop offset="1" stop-color="#d3321d"/></linearGradient><linearGradient id="linear-gradient-3" x1="0" y1="-11879.99" x2="978.71" y2="-11879.99" xlink:href="#linear-gradient-2"/><linearGradient id="linear-gradient-4" x1="397.6" y1="-11541.69" x2="1125.79" y2="-11541.69" xlink:href="#linear-gradient-2"/><linearGradient id="linear-gradient-5" x1="409.77" y1="-11541.88" x2="1113.85" y2="-11541.88" gradientTransform="matrix(1, 0, 0, -1, 0, -11012.83)" gradientUnits="userSpaceOnUse"><stop offset="0" stop-color="#3919ba"/><stop offset="1" stop-color="#6507f9"/></linearGradient><linearGradient id="linear-gradient-6" x1="1025" y1="-11504.32" x2="1195.25" y2="-11504.32" xlink:href="#linear-gradient-2"/><linearGradient id="linear-gradient-7" x1="441.39" y1="-11248.82" x2="896.95" y2="-11248.82" xlink:href="#linear-gradient-2"/></defs><g id="Layer_2" data-name="Layer 2"><g id="Layer_1-2" data-name="Layer 1"><path class="cls-1" d="M573.8,1316.08,5.59,989.62c-8.28-4.76-7.24-13.08,2.33-18.57L372.59,761.53c9.57-5.49,24-6.1,32.29-1.35l568.23,326.46c8.29,4.76,7.25,13.15-2.32,18.57L606.11,1314.73C596.56,1320.22,582.08,1320.82,573.8,1316.08Z"/><path class="cls-2" d="M1124.08,462.75l-566-325.17a14.69,14.69,0,0,0-11.55-1.65L536,139.59l3.69.88a18.31,18.31,0,0,0-3.47,6.44L408.26,560.43c-3.17,10.23,1.47,22.72,10.38,27.83l566,325.18a17.31,17.31,0,0,0,4.16,1.69l-1.47,3,10-3.49a16.08,16.08,0,0,0,5.76-4.23,15.86,15.86,0,0,0,3.34-6.3l128-413.56C1137.61,480.33,1133,467.86,1124.08,462.75Z"/><path class="cls-3" d="M964.33,928.89l.2.24-559-321.2c-8.22-4.71-22.59-4.12-32.07,1.33L12.22,816.79l-12-4.57L3.56,829.1A10.06,10.06,0,0,0,9,835.74L573.18,1159.9c8.22,4.73,22.58,4.13,32.07-1.32l362.15-208c4.4-2.57,7-5.75,7.67-8.91l3.47-16.35Z"/><path class="cls-4" d="M573.8,1145.1,5.59,818.66c-8.28-4.77-7.24-13.15,2.33-18.57L372.59,590.57c9.57-5.51,24-6.1,32.29-1.35L973.11,915.68c8.29,4.76,7.25,13.15-2.32,18.57L606.11,1143.77C596.56,1149.26,582.08,1149.86,573.8,1145.1Z"/><path class="cls-5" d="M970.8,929.89,606.11,1139.36c-9.55,5.5-24,6.1-32.29,1.34L5.59,814.24a10.61,10.61,0,0,1-5.17-5.85c-1.08,3.78.52,7.58,5.17,10.23L573.8,1145.09c8.28,4.77,22.76,4.16,32.3-1.33L970.8,934.27c6.31-3.63,8.8-8.46,7.48-12.69C977.43,924.5,975,927.44,970.8,929.89Z"/><g class="cls-6"><path class="cls-7" d="M276.63,765.67,257.44,754.6c-1.54-.88-1.35-2.43.42-3.45l22.68-13a6.64,6.64,0,0,1,3-.84,6.73,6.73,0,0,1,3,.59l19.18,11c1.55.89,1.36,2.42-.44,3.45l-22.63,13a6.82,6.82,0,0,1-3,.84A6.61,6.61,0,0,1,276.63,765.67Z"/><path class="cls-7" d="M306.25,782.7l-19.19-11c-1.54-.87-1.35-2.42.43-3.44l22.65-13a6.6,6.6,0,0,1,3-.84,6.73,6.73,0,0,1,3,.59l19.19,11c1.54.89,1.35,2.45-.43,3.45l-22.65,13a6.62,6.62,0,0,1-3,.85A6.73,6.73,0,0,1,306.25,782.7Z"/><path class="cls-7" d="M335.87,799.71l-19.19-11c-1.54-.89-1.35-2.44.43-3.46l22.65-13a6.66,6.66,0,0,1,6-.25L365,783c1.54.89,1.35,2.44-.43,3.46l-22.65,13a6.7,6.7,0,0,1-6,.26Z"/><path class="cls-7" d="M376.85,785.65l-19.19-11c-1.47-.88-1.35-2.43.44-3.45l19-10.91a6.68,6.68,0,0,1,3-.84,6.61,6.61,0,0,1,3,.59l19.19,11c1.54.89,1.34,2.42-.44,3.45l-19,10.93a6.86,6.86,0,0,1-3,.83A6.7,6.7,0,0,1,376.85,785.65Z"/><path class="cls-7" d="M406.46,802.66l-19.18-11c-1.47-.89-1.34-2.44.44-3.46l19.07-10.91a6.66,6.66,0,0,1,6-.25L432,788c1.54.89,1.35,2.44-.44,3.46l-19,10.92a6.74,6.74,0,0,1-3,.85A6.62,6.62,0,0,1,406.46,802.66Z"/><path class="cls-7" d="M436.14,819.67l-19.24-11c-1.47-.89-1.34-2.44.44-3.46l19-10.91a6.6,6.6,0,0,1,3-.84,6.73,6.73,0,0,1,3,.59l19.19,11c1.54.9,1.35,2.44-.44,3.47l-19,10.91a6.65,6.65,0,0,1-6,.27Z"/><path class="cls-7" d="M465.71,836.71l-19.17-11c-1.54-.89-1.35-2.42.43-3.45l19-10.92a6.66,6.66,0,0,1,6-.25l19.19,11c1.47.87,1.35,2.43-.43,3.45l-19,10.85a6.6,6.6,0,0,1-3,.87A6.79,6.79,0,0,1,465.71,836.71Z"/><path class="cls-7" d="M495.35,853.73l-19.19-11c-1.54-.88-1.35-2.43.43-3.45l19-10.92a6.6,6.6,0,0,1,3-.84,6.86,6.86,0,0,1,3,.58l19.19,11c1.47.87,1.35,2.42-.43,3.44l-19,10.93a6.74,6.74,0,0,1-6,.25Z"/><path class="cls-7" d="M525,870.75l-19.18-11c-1.54-.88-1.35-2.42.42-3.45l19-10.93a6.84,6.84,0,0,1,3-.82,6.63,6.63,0,0,1,3,.58l19.18,11c1.54.87,1.35,2.43-.42,3.44l-19,10.93a6.79,6.79,0,0,1-3,.82A6.88,6.88,0,0,1,525,870.75Z"/><path class="cls-7" d="M554.59,887.76l-19.18-11c-1.54-.88-1.35-2.43.42-3.45l19-10.92a6.74,6.74,0,0,1,6-.24l19.15,11c1.53.89,1.34,2.42-.43,3.45L560.5,887.52a6.65,6.65,0,0,1-2.93.8A6.52,6.52,0,0,1,554.59,887.76Z"/><path class="cls-7" d="M584.22,904.8l-19.19-11c-1.54-.89-1.35-2.45.43-3.46l19.08-10.92a6.73,6.73,0,0,1,3-.83,6.51,6.51,0,0,1,3,.59l19.19,11c1.46.89,1.33,2.44-.45,3.46l-19.08,10.91a6.6,6.6,0,0,1-3,.84A6.68,6.68,0,0,1,584.22,904.8Z"/><path class="cls-7" d="M613.83,921.81l-19.15-11c-1.54-.89-1.35-2.45.44-3.46l19-10.92a6.76,6.76,0,0,1,3-.83,6.6,6.6,0,0,1,3,.58l19.19,11c1.54.89,1.34,2.43-.44,3.46L619.8,921.56a6.68,6.68,0,0,1-6,.25Z"/><path class="cls-7" d="M643.47,938.82l-19.19-11c-1.47-.88-1.34-2.42.44-3.44l19-10.93a6.66,6.66,0,0,1,6-.25l19.19,11c1.47.88,1.35,2.42-.44,3.45l-19,11a6.74,6.74,0,0,1-6,.18Z"/><path class="cls-7" d="M420.5,777.59l-19.19-11c-1.46-.89-1.35-2.43.43-3.46l19-10.91a6.66,6.66,0,0,1,6-.25l19.19,11c1.54.88,1.35,2.44-.43,3.46l-19,10.91a6.66,6.66,0,0,1-6,.25Z"/><path class="cls-7" d="M390.43,760.31l-19.18-11c-1.54-.88-1.35-2.43.43-3.45l19-10.93a6.86,6.86,0,0,1,3-.83,6.6,6.6,0,0,1,3,.59l19.19,11c1.54.88,1.35,2.43-.43,3.45l-18.89,10.93a6.82,6.82,0,0,1-3,.85A6.62,6.62,0,0,1,390.43,760.31Z"/><path class="cls-7" d="M360.31,743,319,719.27c-1.54-.88-1.35-2.42.44-3.45l19-10.9a6.85,6.85,0,0,1,3-.82,6.65,6.65,0,0,1,3,.58l41.31,23.74c1.54.89,1.35,2.43-.43,3.46l-19,10.91a6.7,6.7,0,0,1-6,.22Z"/><path class="cls-7" d="M381.36,722,347.83,702.7c-1.47-.89-1.35-2.42.43-3.44l19-10.93a6.59,6.59,0,0,1,3-.83,6.72,6.72,0,0,1,3,.58l33.52,19.27c1.54.87,1.35,2.43-.43,3.45l-19.08,10.92a6.74,6.74,0,0,1-5.92.25Z"/><path class="cls-7" d="M450.13,794.62l-19.19-11c-1.54-.9-1.35-2.43.42-3.45l19-10.94a6.7,6.7,0,0,1,6-.25l19.17,11c1.47.87,1.36,2.43-.42,3.44l-19,10.92a6.74,6.74,0,0,1-3,.85A6.86,6.86,0,0,1,450.13,794.62Z"/><path class="cls-7" d="M479.75,811.65l-19.19-11c-1.54-.87-1.35-2.42.43-3.45l19-10.92a6.76,6.76,0,0,1,6-.25l19.13,11c1.54.88,1.35,2.43-.42,3.45l-19,10.93a6.8,6.8,0,0,1-2.95.85A6.91,6.91,0,0,1,479.75,811.65Z"/><path class="cls-7" d="M509.37,828.66l-19.19-11c-1.54-.88-1.35-2.42.44-3.45l19-10.92a6.78,6.78,0,0,1,6-.25l19.18,11c1.47.87,1.34,2.43-.44,3.45l-19,10.92a6.74,6.74,0,0,1-3,.85A6.92,6.92,0,0,1,509.37,828.66Z"/><path class="cls-7" d="M539,845.67l-19.17-11c-1.55-.88-1.34-2.42.44-3.45l19-10.86a6.73,6.73,0,0,1,3-.84,6.61,6.61,0,0,1,3,.59l19.18,11c1.54.89,1.34,2.42-.44,3.44l-19,10.93a6.79,6.79,0,0,1-3,.82A6.88,6.88,0,0,1,539,845.67Z"/><path class="cls-7" d="M568.6,862.69l-19.18-11c-1.47-.89-1.34-2.45.44-3.46l19-10.92a6.72,6.72,0,0,1,3-.83,6.65,6.65,0,0,1,3,.58l19.18,11c1.54.89,1.35,2.44-.44,3.46l-19,10.92a6.86,6.86,0,0,1-3,.83A6.65,6.65,0,0,1,568.6,862.69Z"/><path class="cls-7" d="M598.24,879.73l-19.18-11c-1.54-.89-1.35-2.44.43-3.46l19.08-10.91a6.74,6.74,0,0,1,3-.84,6.53,6.53,0,0,1,3,.59l19.19,11c1.47.88,1.35,2.43-.42,3.46l-19.08,10.9a6.66,6.66,0,0,1-6,.26Z"/><path class="cls-7" d="M627.88,896.74l-19.18-11c-1.54-.89-1.35-2.42.42-3.45l19-10.93a6.76,6.76,0,0,1,3-.83,6.6,6.6,0,0,1,3,.59l19.19,11c1.46.87,1.34,2.42-.43,3.44l-19,10.91a6.72,6.72,0,0,1-6,.26Z"/><path class="cls-7" d="M657.49,913.81l-19.18-11c-1.55-.88-1.36-2.43.42-3.45l19.08-10.93a6.72,6.72,0,0,1,6-.24l19.11,11c1.47.87,1.35,2.43-.42,3.44l-19.09,10.93a6.71,6.71,0,0,1-2.94.81A6.87,6.87,0,0,1,657.49,913.81Z"/><path class="cls-7" d="M687.17,930.79l-19.19-11c-1.46-.88-1.35-2.42.43-3.45l19-10.93a6.86,6.86,0,0,1,3-.83,6.73,6.73,0,0,1,3,.59l19.18,11c1.54.88,1.35,2.43-.43,3.45l-19.09,10.93a6.63,6.63,0,0,1-2.93.81A6.56,6.56,0,0,1,687.17,930.79Z"/><path class="cls-7" d="M739.8,961l-41.86-24c-1.55-.89-1.36-2.43.43-3.44l19-11a6.7,6.7,0,0,1,6-.25l41.85,24c1.54.9,1.35,2.44-.43,3.47l-19,10.91a6.74,6.74,0,0,1-3,.85A6.6,6.6,0,0,1,739.8,961Z"/><path class="cls-7" d="M797.46,927.91l-35.33-20.3c-1.55-.88-1.35-2.43.42-3.45l19-10.93a6.86,6.86,0,0,1,3-.83,6.74,6.74,0,0,1,3,.59l35.32,20.3c1.47.88,1.35,2.42-.42,3.45l-19,10.93a6.86,6.86,0,0,1-3,.83A6.73,6.73,0,0,1,797.46,927.91Z"/><path class="cls-7" d="M502,791.28l-19.19-11c-1.54-.89-1.35-2.43.43-3.45l19-10.93a6.8,6.8,0,0,1,3-.83,6.49,6.49,0,0,1,3,.59l19.19,11c1.47.88,1.33,2.42-.44,3.45l-18.89,11a6.7,6.7,0,0,1-6.08.16Z"/><path class="cls-7" d="M471.64,773.83l-19.18-11c-1.55-.89-1.35-2.43.42-3.46L472,748.44a6.66,6.66,0,0,1,6-.25l19.18,11c1.55.89,1.36,2.44-.42,3.46l-19.08,10.91a6.74,6.74,0,0,1-3,.84A6.6,6.6,0,0,1,471.64,773.83Z"/><path class="cls-7" d="M441.27,756.38l-19.19-11c-1.47-.89-1.34-2.44.44-3.46l19-10.92a6.72,6.72,0,0,1,3-.83,6.61,6.61,0,0,1,3,.59l19.18,11c1.54.89,1.35,2.44-.44,3.46l-19,10.92a6.74,6.74,0,0,1-6,.24Z"/><path class="cls-7" d="M410.92,738.94l-19.18-11c-1.54-.89-1.35-2.44.42-3.46l19.09-10.91a6.68,6.68,0,0,1,6-.25l19.19,11c1.47.9,1.34,2.43-.44,3.45l-19.08,10.92a6.62,6.62,0,0,1-3,.85A6.88,6.88,0,0,1,410.92,738.94Z"/><path class="cls-7" d="M531.57,808.3l-19.09-11c-1.54-.88-1.35-2.43.44-3.45l19-10.93a6.83,6.83,0,0,1,6-.24l19.18,11c1.55.88,1.34,2.43-.44,3.45l-19,10.93a6.67,6.67,0,0,1-3,.86A6.79,6.79,0,0,1,531.57,808.3Z"/><path class="cls-7" d="M561.24,825.32l-19.18-11c-1.47-.87-1.34-2.42.44-3.44l19-11a6.66,6.66,0,0,1,6-.25l19.19,11c1.54.89,1.35,2.42-.44,3.44l-19,10.93a6.74,6.74,0,0,1-3,.85A6.66,6.66,0,0,1,561.24,825.32Z"/><path class="cls-7" d="M590.87,842.33l-19.17-11c-1.47-.87-1.35-2.42.42-3.44l19-10.92a6.68,6.68,0,0,1,3-.83,6.6,6.6,0,0,1,3,.59l19.18,11c1.47.89,1.36,2.43-.42,3.45l-19.08,10.92a6.81,6.81,0,0,1-3,.83A6.73,6.73,0,0,1,590.87,842.33Z"/><path class="cls-7" d="M620.49,859.37l-19.17-11c-1.47-.9-1.35-2.44.43-3.47l19-10.91a6.73,6.73,0,0,1,3-.84,6.86,6.86,0,0,1,3,.59l19.18,11c1.55.89,1.36,2.44-.42,3.46l-19.08,10.91a6.94,6.94,0,0,1-3,.82A6.59,6.59,0,0,1,620.49,859.37Z"/><path class="cls-7" d="M650.13,876.38l-19.18-11c-1.55-.9-1.36-2.45.42-3.47L650.45,851a6.68,6.68,0,0,1,6-.25l19.18,11c1.47.89,1.36,2.43-.42,3.46l-19,10.91a6.66,6.66,0,0,1-6.08.25Z"/><path class="cls-7" d="M679.82,893.38l-19.18-11c-1.47-.89-1.36-2.42.42-3.45L680.14,868a6.94,6.94,0,0,1,3-.83,6.74,6.74,0,0,1,3,.59l19,11c1.55.88,1.36,2.43-.42,3.45l-19.08,10.93a6.7,6.7,0,0,1-5.86.23Z"/><path class="cls-7" d="M709.38,910.43l-19.19-11c-1.47-.88-1.35-2.43.42-3.45l19-10.93a6.81,6.81,0,0,1,3-.84,6.88,6.88,0,0,1,3,.59l19.17,11c1.47.88,1.36,2.42-.42,3.45l-19,10.93a6.82,6.82,0,0,1-3,.83A6.66,6.66,0,0,1,709.38,910.43Z"/><path class="cls-7" d="M739,927.44l-19.19-11c-1.47-.88-1.35-2.43.45-3.45l19-10.93a6.74,6.74,0,0,1,3-.84,6.94,6.94,0,0,1,3,.59l19.18,11c1.54.89,1.34,2.42-.44,3.45L744.94,927.2A6.88,6.88,0,0,1,742,928,6.68,6.68,0,0,1,739,927.44Z"/><path class="cls-7" d="M768.62,944.49l-19.18-11c-1.47-.89-1.34-2.43.44-3.46l19-10.91a6.6,6.6,0,0,1,3-.84,6.7,6.7,0,0,1,3,.59l19.19,11c1.47.89,1.35,2.43-.44,3.44l-19,10.93a6.47,6.47,0,0,1-3,.83A6.65,6.65,0,0,1,768.62,944.49Z"/><path class="cls-7" d="M486.4,749.18l-19.19-11c-1.54-.89-1.33-2.43.44-3.45l19.09-10.93a6.86,6.86,0,0,1,3-.83,6.73,6.73,0,0,1,3,.59l19.19,11c1.54.88,1.35,2.43-.44,3.45l-19,10.93a6.85,6.85,0,0,1-6.09.25Z"/><path class="cls-7" d="M456.93,732.24l-19.19-11c-1.54-.89-1.33-2.43.44-3.46l19-10.9a6.62,6.62,0,0,1,3-.85,6.74,6.74,0,0,1,3,.59l19.18,11c1.54.89,1.35,2.44-.44,3.46L463,732a6.81,6.81,0,0,1-3,.84A6.61,6.61,0,0,1,456.93,732.24Z"/><path class="cls-7" d="M427.43,715.32l-19.18-11c-1.54-.87-1.35-2.42.44-3.44l19-10.93a6.78,6.78,0,0,1,6-.25l19.19,11c1.47.88,1.33,2.43-.44,3.45l-19,10.93a6.72,6.72,0,0,1-6,.24Z"/><path class="cls-7" d="M398,698.37l-19.2-11c-1.54-.89-1.35-2.44.44-3.45l19-10.92a6.7,6.7,0,0,1,6-.25l19.19,11c1.54.89,1.34,2.45-.44,3.46l-19,10.92a6.7,6.7,0,0,1-3,.81A6.55,6.55,0,0,1,398,698.37Z"/><path class="cls-7" d="M428.28,681l-19.19-11c-1.54-.89-1.35-2.44.43-3.46l6.29-3.61a6.63,6.63,0,0,1,3-.83,6.86,6.86,0,0,1,3,.58l19.18,11c1.55.88,1.34,2.42-.44,3.45l-6.28,3.61a6.72,6.72,0,0,1-3,.83A6.47,6.47,0,0,1,428.28,681Z"/><path class="cls-7" d="M466.75,703.07l-19.18-11c-1.46-.89-1.35-2.44.43-3.46l6.28-3.6a6.61,6.61,0,0,1,3-.84,6.72,6.72,0,0,1,3,.58l19.18,11c1.54.87,1.35,2.42-.42,3.44l-6.29,3.61a6.68,6.68,0,0,1-6,.25Z"/><path class="cls-7" d="M496.1,719.92l-19.19-11c-1.46-.87-1.33-2.42.44-3.44l6.29-3.61a6.72,6.72,0,0,1,3-.83,6.59,6.59,0,0,1,3,.58l19.19,11c1.54.89,1.35,2.44-.43,3.46l-6.28,3.61a6.78,6.78,0,0,1-6,.25Z"/><path class="cls-7" d="M525.47,736.78l-19.19-11c-1.47-.89-1.35-2.44.43-3.46L513,718.7a6.76,6.76,0,0,1,6-.25l19.18,11c1.54.87,1.34,2.43-.44,3.44l-6.28,3.61a6.66,6.66,0,0,1-6,.25Z"/><path class="cls-7" d="M554.81,753.66l-19.18-11c-1.47-.88-1.35-2.42.42-3.45l6.29-3.61a6.72,6.72,0,0,1,3-.83,6.61,6.61,0,0,1,3,.59l19.17,11c1.55.89,1.36,2.44-.42,3.46l-6.28,3.61a6.68,6.68,0,0,1-6,.25Z"/><path class="cls-7" d="M718.69,847.8l-19.19-11c-1.47-.89-1.35-2.42.43-3.45l6.28-3.62a6.78,6.78,0,0,1,6-.25l19.19,11c1.54.89,1.34,2.43-.44,3.45l-6.28,3.61a6.76,6.76,0,0,1-3,.83A6.61,6.61,0,0,1,718.69,847.8Z"/><path class="cls-7" d="M748.05,864.68l-19.18-11c-1.47-.87-1.36-2.42.42-3.44l6.31-3.58a6.6,6.6,0,0,1,3-.84,6.77,6.77,0,0,1,3,.59l19.19,11c1.53.88,1.34,2.42-.43,3.45l-6.29,3.61a6.9,6.9,0,0,1-3,.83A6.8,6.8,0,0,1,748.05,864.68Z"/><path class="cls-7" d="M777.4,881.55l-19.18-11c-1.47-.89-1.33-2.43.44-3.45l6.28-3.61a6.66,6.66,0,0,1,6-.25l19.19,11c1.54.89,1.35,2.43-.43,3.44l-6.28,3.63a6.86,6.86,0,0,1-3,.83A6.66,6.66,0,0,1,777.4,881.55Z"/><path class="cls-7" d="M806.75,898.42l-19.18-11c-1.47-.89-1.35-2.44.44-3.46l6.28-3.61a6.76,6.76,0,0,1,6-.25l19.19,11c1.53.88,1.34,2.42-.45,3.45l-6.28,3.61a6.72,6.72,0,0,1-3,.83A6.64,6.64,0,0,1,806.75,898.42Z"/><path class="cls-7" d="M516,766.27l-19.17-11c-1.54-.87-1.35-2.43.43-3.45l19-10.92a6.6,6.6,0,0,1,3-.84,6.86,6.86,0,0,1,3,.58l19.19,11c1.54.87,1.35,2.42-.43,3.45L522,766a6.73,6.73,0,0,1-3,.83A6.65,6.65,0,0,1,516,766.27Z"/><path class="cls-7" d="M545.65,783.22l-19.19-11c-1.47-.87-1.35-2.42.43-3.44l19-10.93a6.74,6.74,0,0,1,6-.25l19.19,11c1.53.89,1.34,2.42-.43,3.45l-19,10.92a6.66,6.66,0,0,1-6,.25Z"/><path class="cls-7" d="M575.28,800.25l-19.18-11c-1.47-.9-1.35-2.44.42-3.47l19.08-10.91a6.77,6.77,0,0,1,3-.84,6.86,6.86,0,0,1,3,.59l19.19,11c1.54.89,1.35,2.44-.43,3.44l-19,10.93a6.63,6.63,0,0,1-3,.86A6.78,6.78,0,0,1,575.28,800.25Z"/><path class="cls-7" d="M605,817.26l-19.19-11c-1.54-.9-1.35-2.45.43-3.47l19-10.91a6.7,6.7,0,0,1,6-.25l19.17,11c1.54.89,1.35,2.43-.43,3.46L611,817a6.64,6.64,0,0,1-3,.84A6.74,6.74,0,0,1,605,817.26Z"/><path class="cls-7" d="M634.52,834.28l-19.18-11c-1.54-.9-1.35-2.45.43-3.47l19-10.91a6.7,6.7,0,0,1,6-.25l19.18,11c1.47.89,1.33,2.43-.44,3.46l-19,10.91a6.72,6.72,0,0,1-6,.26Z"/><path class="cls-7" d="M664.14,851.31l-19.18-11c-1.47-.9-1.35-2.43.44-3.45l19-10.93a6.6,6.6,0,0,1,3-.83,6.72,6.72,0,0,1,3,.58l19.19,11c1.54.88,1.33,2.42-.44,3.45l-19.08,10.93a6.74,6.74,0,0,1-5.94.24Z"/><path class="cls-7" d="M693.78,868.32l-19.19-11c-1.47-.88-1.33-2.43.44-3.45l19-10.93a6.73,6.73,0,0,1,3-.84,6.91,6.91,0,0,1,3,.59l19.18,11c1.47.88,1.35,2.42-.44,3.45l-19,10.93a6.94,6.94,0,0,1-3,.83A6.73,6.73,0,0,1,693.78,868.32Z"/><path class="cls-7" d="M723.4,885.35l-19.19-11c-1.47-.88-1.33-2.43.44-3.45L723.74,860a6.74,6.74,0,0,1,6-.23l19.09,11c1.54.9,1.34,2.43-.43,3.45L729.31,885.1a6.72,6.72,0,0,1-5.91.25Z"/><path class="cls-7" d="M753,902.36l-19.17-11c-1.47-.89-1.36-2.43.42-3.46l19-10.91a6.6,6.6,0,0,1,3-.84,6.77,6.77,0,0,1,3,.59l19.18,11c1.47.9,1.35,2.45-.42,3.45l-18.9,10.94a6.61,6.61,0,0,1-3,.85A6.75,6.75,0,0,1,753,902.36Z"/><path class="cls-7" d="M346.61,768.31l-56.49-32.48c-1.54-.88-1.35-2.42.43-3.45l19.08-10.9a6.62,6.62,0,0,1,3-.85,6.86,6.86,0,0,1,3,.59l56.51,32.46c1.54.88,1.35,2.43-.43,3.45l-19,10.93a6.76,6.76,0,0,1-6.09.25Z"/><path class="cls-7" d="M710.66,977.41,654.16,945c-1.54-.89-1.35-2.44.42-3.45l19.09-10.93a6.72,6.72,0,0,1,3-.83,6.6,6.6,0,0,1,3,.59l56.5,32.46c1.54.88,1.35,2.42-.42,3.44l-19.08,10.93a6.8,6.8,0,0,1-3,.83A6.72,6.72,0,0,1,710.66,977.41Z"/><path class="cls-7" d="M592.13,947l-19.19-11c-1.54-.88-1.35-2.42.42-3.45l22.66-13a6.72,6.72,0,0,1,6-.24l19.18,11c1.47.89,1.35,2.42-.43,3.45l-22.65,13a6.6,6.6,0,0,1-3,.84A6.69,6.69,0,0,1,592.13,947Z"/><path class="cls-7" d="M377,823.33l-30.68-17.6c-1.54-.9-1.35-2.44.44-3.47l22.64-13a6.72,6.72,0,0,1,3-.83,6.6,6.6,0,0,1,3,.59l30.68,17.63c1.54.87,1.35,2.42-.42,3.44l-22.65,13a6.79,6.79,0,0,1-3,.82A6.87,6.87,0,0,1,377,823.33Z"/><path class="cls-7" d="M563.57,930.53l-30.68-17.62c-1.54-.89-1.33-2.44.44-3.46l22.64-13a6.74,6.74,0,0,1,3-.84,6.64,6.64,0,0,1,3,.59l30.68,17.62c1.54.89,1.33,2.43-.44,3.46l-22.64,13a6.7,6.7,0,0,1-6,.25Z"/><path class="cls-7" d="M419.73,847.89l-30.68-17.64c-1.54-.89-1.35-2.42.42-3.45l22.66-13a6.57,6.57,0,0,1,3-.84,6.73,6.73,0,0,1,3,.59l30.68,17.63c1.54.88,1.35,2.43-.43,3.45l-22.65,13a6.72,6.72,0,0,1-3,.83A6.86,6.86,0,0,1,419.73,847.89Z"/><path class="cls-7" d="M418.34,813.66l133.39,76.63a1.88,1.88,0,0,1,.9.67A1.82,1.82,0,0,1,553,892a1.79,1.79,0,0,1-.33,1.05,1.88,1.88,0,0,1-.9.67L528.63,907a6.76,6.76,0,0,1-6,0L389.25,830.37Z"/><path class="cls-7" d="M674.93,977.79l21.37,12.28c1.26.73,1.1,2-.35,2.83l-9.26,5.31a5.41,5.41,0,0,1-2.45.69,5.51,5.51,0,0,1-2.49-.48L660.4,986.13c-1.27-.71-1.12-2,.35-2.81L670,978a5.35,5.35,0,0,1,2.43-.68A5.46,5.46,0,0,1,674.93,977.79Z"/><path class="cls-7" d="M645.05,960.64l21.37,12.27c1.26.73,1.1,2-.36,2.84L656.8,981a5.34,5.34,0,0,1-2.44.7,5.47,5.47,0,0,1-2.49-.49L630.51,969c-1.26-.73-1.12-2,.35-2.83l9.27-5.32a5.46,5.46,0,0,1,2.43-.67A5.62,5.62,0,0,1,645.05,960.64Z"/><path class="cls-7" d="M615.43,943.61l21.38,12.27c1.26.73,1.1,2-.35,2.84L627.19,964a5.37,5.37,0,0,1-2.44.69,5.48,5.48,0,0,1-2.49-.48L600.9,952c-1.26-.71-1.11-2,.36-2.81l9.26-5.34a5.58,5.58,0,0,1,2.44-.68A5.52,5.52,0,0,1,615.43,943.61Z"/><path class="cls-7" d="M661.41,951.24l21.35,12.26c1.27.72,1.12,2-.35,2.82l-9.27,5.33a5.61,5.61,0,0,1-2.43.68,5.54,5.54,0,0,1-2.48-.47l-21.38-12.29c-1.26-.71-1.1-2,.36-2.82l9.26-5.33a5.51,5.51,0,0,1,2.45-.67A5.57,5.57,0,0,1,661.41,951.24Z"/></g><path class="cls-5" d="M276.63,765.67,257.44,754.6c-1.54-.88-1.35-2.43.42-3.45l22.68-13a6.64,6.64,0,0,1,3-.84,6.73,6.73,0,0,1,3,.59l19.18,11c1.55.89,1.36,2.42-.44,3.45l-22.63,13a6.82,6.82,0,0,1-3,.84A6.61,6.61,0,0,1,276.63,765.67Z"/><path class="cls-5" d="M306.25,782.7l-19.19-11c-1.54-.87-1.35-2.42.43-3.44l22.65-13a6.6,6.6,0,0,1,3-.84,6.73,6.73,0,0,1,3,.59l19.19,11c1.54.89,1.35,2.45-.43,3.45l-22.65,13a6.62,6.62,0,0,1-3,.85A6.73,6.73,0,0,1,306.25,782.7Z"/><path class="cls-5" d="M335.87,799.71l-19.19-11c-1.54-.89-1.35-2.44.43-3.46l22.65-13a6.6,6.6,0,0,1,3-.84,6.73,6.73,0,0,1,3,.59L365,783c1.54.89,1.35,2.45-.43,3.46l-22.65,13a6.62,6.62,0,0,1-3,.85A6.73,6.73,0,0,1,335.87,799.71Z"/><path class="cls-5" d="M376.85,785.65l-19.19-11c-1.47-.88-1.35-2.43.44-3.45l19-10.91a6.68,6.68,0,0,1,3-.84,6.61,6.61,0,0,1,3,.59l19.19,11c1.54.89,1.34,2.42-.44,3.45l-19,10.93a6.86,6.86,0,0,1-3,.83A6.7,6.7,0,0,1,376.85,785.65Z"/><path class="cls-5" d="M406.46,802.66l-19.18-11c-1.47-.89-1.34-2.44.44-3.46l19.07-10.91a6.66,6.66,0,0,1,6-.25L432,788c1.54.89,1.35,2.44-.44,3.46l-19,10.92a6.74,6.74,0,0,1-3,.85A6.62,6.62,0,0,1,406.46,802.66Z"/><path class="cls-5" d="M436.14,819.7l-19.24-11c-1.47-.89-1.34-2.44.44-3.46l19-10.91a6.7,6.7,0,0,1,6-.26l19.19,11c1.54.89,1.35,2.44-.44,3.46l-19,10.92a6.73,6.73,0,0,1-2.94.83A6.66,6.66,0,0,1,436.14,819.7Z"/><path class="cls-5" d="M465.71,836.71l-19.17-11c-1.54-.89-1.35-2.42.43-3.45l19-10.92a6.66,6.66,0,0,1,6-.25l19.19,11c1.47.87,1.35,2.43-.43,3.45l-19,10.85a6.6,6.6,0,0,1-3,.87A6.79,6.79,0,0,1,465.71,836.71Z"/><path class="cls-5" d="M495.35,853.76l-19.19-11c-1.54-.87-1.35-2.42.43-3.44l19-10.93a6.74,6.74,0,0,1,6-.25l19.19,11c1.47.88,1.35,2.43-.43,3.45l-19,10.92a6.6,6.6,0,0,1-3,.84A6.86,6.86,0,0,1,495.35,853.76Z"/><path class="cls-5" d="M525,870.75l-19.18-11c-1.54-.88-1.35-2.42.42-3.45l19-10.93a6.84,6.84,0,0,1,3-.82,6.63,6.63,0,0,1,3,.58l19.18,11c1.54.87,1.35,2.43-.42,3.44l-19,10.93a6.79,6.79,0,0,1-3,.82A6.88,6.88,0,0,1,525,870.75Z"/><path class="cls-5" d="M554.59,887.79l-19.18-11c-1.54-.87-1.35-2.43.42-3.44l19-10.92a6.8,6.8,0,0,1,3-.83,6.49,6.49,0,0,1,3,.59l19.15,11c1.53.89,1.34,2.42-.43,3.45L560.5,887.54a6.53,6.53,0,0,1-2.93.81A6.65,6.65,0,0,1,554.59,887.79Z"/><path class="cls-5" d="M584.22,904.8l-19.19-11c-1.54-.89-1.35-2.45.43-3.46l19.08-10.92a6.73,6.73,0,0,1,3-.83,6.51,6.51,0,0,1,3,.59l19.19,11c1.46.89,1.33,2.44-.45,3.46l-19.08,10.91a6.6,6.6,0,0,1-3,.84A6.68,6.68,0,0,1,584.22,904.8Z"/><path class="cls-5" d="M613.85,921.81l-19.16-11c-1.54-.89-1.35-2.45.44-3.46l19-10.92a6.73,6.73,0,0,1,3-.83,6.63,6.63,0,0,1,3,.58l19.18,11c1.55.89,1.34,2.43-.44,3.46l-19.08,10.91a6.66,6.66,0,0,1-6,.25Z"/><path class="cls-5" d="M643.47,938.85l-19.19-11c-1.47-.89-1.34-2.42.44-3.45l19-10.92a6.66,6.66,0,0,1,6-.25l19.19,11c1.47.87,1.35,2.42-.44,3.45l-19,11a6.85,6.85,0,0,1-3,.8A6.68,6.68,0,0,1,643.47,938.85Z"/><path class="cls-5" d="M420.5,777.59l-19.19-11c-1.46-.89-1.35-2.43.43-3.46l19-10.91a6.66,6.66,0,0,1,6-.25l19.19,11c1.54.88,1.35,2.44-.43,3.46l-19,10.91a6.66,6.66,0,0,1-6,.25Z"/><path class="cls-5" d="M390.43,760.31l-19.18-11c-1.54-.88-1.35-2.43.43-3.45l19-10.93a6.86,6.86,0,0,1,3-.83,6.6,6.6,0,0,1,3,.59l19.19,11c1.54.88,1.35,2.43-.43,3.45l-18.89,10.93a6.82,6.82,0,0,1-3,.85A6.62,6.62,0,0,1,390.43,760.31Z"/><path class="cls-5" d="M360.31,743,319,719.27c-1.54-.88-1.35-2.42.44-3.45l19-10.9a6.85,6.85,0,0,1,3-.82,6.65,6.65,0,0,1,3,.58l41.31,23.74c1.54.89,1.35,2.43-.43,3.46l-19,10.91a6.7,6.7,0,0,1-6,.22Z"/><path class="cls-5" d="M381.36,722,347.83,702.7c-1.47-.89-1.35-2.42.43-3.44l19-10.93a6.59,6.59,0,0,1,3-.83,6.72,6.72,0,0,1,3,.58l33.52,19.27c1.54.87,1.35,2.43-.43,3.45l-19.08,10.92a6.74,6.74,0,0,1-5.92.25Z"/><path class="cls-5" d="M450.13,794.62l-19.19-11c-1.54-.9-1.35-2.43.42-3.45l19-10.94a6.7,6.7,0,0,1,6-.25l19.17,11c1.47.87,1.36,2.43-.42,3.44l-19,10.92a6.74,6.74,0,0,1-3,.85A6.86,6.86,0,0,1,450.13,794.62Z"/><path class="cls-5" d="M479.75,811.65l-19.19-11c-1.54-.87-1.35-2.42.43-3.45l19-10.92a6.76,6.76,0,0,1,6-.25l19.13,11c1.54.88,1.35,2.43-.42,3.45l-19,10.93a6.8,6.8,0,0,1-2.95.85A6.91,6.91,0,0,1,479.75,811.65Z"/><path class="cls-5" d="M509.37,828.66l-19.19-11c-1.54-.88-1.35-2.42.44-3.45l19-10.92a6.78,6.78,0,0,1,6-.25l19.18,11c1.47.87,1.34,2.43-.44,3.45l-19,10.92a6.74,6.74,0,0,1-3,.85A6.92,6.92,0,0,1,509.37,828.66Z"/><path class="cls-5" d="M539,845.69l-19.17-11c-1.55-.88-1.34-2.42.44-3.45l19-10.86a6.6,6.6,0,0,1,3-.84,6.74,6.74,0,0,1,3,.58l19.18,11c1.54.9,1.34,2.43-.44,3.45l-19,10.92a6.67,6.67,0,0,1-3,.83A6.75,6.75,0,0,1,539,845.69Z"/><path class="cls-5" d="M568.62,862.69l-19.19-11c-1.47-.89-1.33-2.45.44-3.46l19-10.92a6.72,6.72,0,0,1,3-.83,6.6,6.6,0,0,1,3,.58l19.18,11c1.54.89,1.35,2.44-.44,3.46l-19,10.92a6.94,6.94,0,0,1-3,.83A6.62,6.62,0,0,1,568.62,862.69Z"/><path class="cls-5" d="M598.24,879.73l-19.18-11c-1.54-.89-1.35-2.44.43-3.46l19.08-10.91a6.74,6.74,0,0,1,3-.84,6.53,6.53,0,0,1,3,.59l19.19,11c1.47.88,1.35,2.43-.42,3.46l-19.08,10.9a6.66,6.66,0,0,1-6,.26Z"/><path class="cls-5" d="M627.87,896.74l-19.18-11c-1.55-.89-1.36-2.42.42-3.45l19-10.93a6.72,6.72,0,0,1,3-.83,6.57,6.57,0,0,1,3,.59l19.19,11c1.47.87,1.35,2.42-.43,3.44l-19,10.91a6.68,6.68,0,0,1-3,.84A6.59,6.59,0,0,1,627.87,896.74Z"/><path class="cls-5" d="M657.49,913.83l-19.18-11c-1.55-.88-1.36-2.43.42-3.45l19.08-10.93a6.76,6.76,0,0,1,3-.83,6.86,6.86,0,0,1,3,.58l19.11,11c1.47.88,1.35,2.43-.42,3.45L663.42,913.6a6.68,6.68,0,0,1-5.93.23Z"/><path class="cls-5" d="M687.17,930.79l-19.19-11c-1.46-.88-1.35-2.42.43-3.45l19-10.93a6.86,6.86,0,0,1,3-.83,6.73,6.73,0,0,1,3,.59l19.18,11c1.54.88,1.35,2.43-.43,3.45l-19.09,10.93a6.63,6.63,0,0,1-2.93.81A6.56,6.56,0,0,1,687.17,930.79Z"/><path class="cls-5" d="M739.79,961l-41.87-24c-1.54-.89-1.35-2.43.44-3.44l19-11a6.7,6.7,0,0,1,6-.25l41.85,24c1.54.9,1.35,2.44-.43,3.47l-19,10.91a6.71,6.71,0,0,1-3,.85A6.59,6.59,0,0,1,739.79,961Z"/><path class="cls-5" d="M797.46,927.91l-35.33-20.3c-1.55-.88-1.35-2.43.42-3.45l19-10.93a6.86,6.86,0,0,1,3-.83,6.74,6.74,0,0,1,3,.59l35.32,20.3c1.47.88,1.35,2.42-.42,3.45l-19,10.93a6.86,6.86,0,0,1-3,.83A6.73,6.73,0,0,1,797.46,927.91Z"/><path class="cls-5" d="M502,791.28l-19.19-11c-1.54-.89-1.35-2.43.43-3.45l19-10.93a6.8,6.8,0,0,1,3-.83,6.49,6.49,0,0,1,3,.59l19.19,11c1.47.88,1.33,2.42-.44,3.45l-18.89,11a6.7,6.7,0,0,1-6.08.16Z"/><path class="cls-5" d="M471.64,773.83l-19.18-11c-1.55-.89-1.35-2.43.42-3.46L472,748.44a6.66,6.66,0,0,1,6-.25l19.18,11c1.55.89,1.36,2.44-.42,3.46l-19.08,10.91a6.74,6.74,0,0,1-3,.84A6.6,6.6,0,0,1,471.64,773.83Z"/><path class="cls-5" d="M441.27,756.38l-19.19-11c-1.47-.89-1.34-2.44.44-3.46l19-10.92a6.72,6.72,0,0,1,3-.83,6.61,6.61,0,0,1,3,.59l19.18,11c1.54.89,1.35,2.44-.44,3.46l-19,10.92a6.74,6.74,0,0,1-6,.24Z"/><path class="cls-5" d="M410.92,739l-19.18-11c-1.54-.89-1.35-2.44.42-3.47l19.09-10.9a6.62,6.62,0,0,1,3-.85,6.73,6.73,0,0,1,3,.59l19.19,11c1.47.89,1.34,2.43-.44,3.45l-19.08,10.92a6.68,6.68,0,0,1-6,.25Z"/><path class="cls-5" d="M531.57,808.3l-19.09-11c-1.54-.88-1.35-2.43.44-3.45l19-10.93a6.83,6.83,0,0,1,6-.24l19.18,11c1.55.88,1.34,2.43-.44,3.45l-19,10.93a6.67,6.67,0,0,1-3,.86A6.79,6.79,0,0,1,531.57,808.3Z"/><path class="cls-5" d="M561.24,825.32l-19.18-11c-1.47-.87-1.34-2.42.44-3.44l19-11a6.66,6.66,0,0,1,6-.25l19.19,11c1.54.89,1.35,2.42-.44,3.44l-19,10.93a6.74,6.74,0,0,1-3,.85A6.66,6.66,0,0,1,561.24,825.32Z"/><path class="cls-5" d="M590.87,842.36l-19.17-11c-1.47-.88-1.35-2.42.42-3.45l19-10.91a6.7,6.7,0,0,1,3-.84,6.86,6.86,0,0,1,3,.59l19.18,11c1.47.89,1.36,2.43-.42,3.44l-19.08,10.93a6.66,6.66,0,0,1-3,.82A6.59,6.59,0,0,1,590.87,842.36Z"/><path class="cls-5" d="M620.49,859.37l-19.17-11c-1.47-.9-1.35-2.44.43-3.47l19-10.91a6.73,6.73,0,0,1,3-.84,6.86,6.86,0,0,1,3,.59l19.18,11c1.55.89,1.36,2.44-.42,3.46l-19.08,10.91a6.94,6.94,0,0,1-3,.82A6.59,6.59,0,0,1,620.49,859.37Z"/><path class="cls-5" d="M650.13,876.38l-19.18-11c-1.55-.9-1.36-2.45.42-3.47L650.45,851a6.68,6.68,0,0,1,6-.25l19.18,11c1.47.89,1.36,2.43-.42,3.46l-19,10.91a6.66,6.66,0,0,1-6.08.25Z"/><path class="cls-5" d="M679.82,893.38l-19.18-11c-1.47-.89-1.36-2.42.42-3.45L680.14,868a6.94,6.94,0,0,1,3-.83,6.74,6.74,0,0,1,3,.59l19,11c1.55.88,1.36,2.43-.42,3.45l-19.08,10.93a6.7,6.7,0,0,1-5.86.23Z"/><path class="cls-5" d="M709.38,910.43l-19.19-11c-1.47-.88-1.35-2.43.42-3.45l19-10.93a6.81,6.81,0,0,1,3-.84,6.88,6.88,0,0,1,3,.59l19.17,11c1.47.88,1.36,2.42-.42,3.45l-19,10.93a6.82,6.82,0,0,1-3,.83A6.66,6.66,0,0,1,709.38,910.43Z"/><path class="cls-5" d="M739,927.44l-19.19-11c-1.47-.88-1.35-2.43.44-3.45l19-10.93a6.81,6.81,0,0,1,3-.84,6.88,6.88,0,0,1,3,.59l19.18,11c1.55.89,1.35,2.42-.43,3.45L744.92,927.2A6.8,6.8,0,0,1,742,928,6.65,6.65,0,0,1,739,927.44Z"/><path class="cls-5" d="M768.62,944.49l-19.18-11c-1.47-.89-1.34-2.43.44-3.46l19-10.91a6.6,6.6,0,0,1,3-.84,6.7,6.7,0,0,1,3,.59l19.19,11c1.47.89,1.35,2.43-.44,3.44l-19,10.93a6.67,6.67,0,0,1-6,.23Z"/><path class="cls-5" d="M486.4,749.2l-19.19-11c-1.54-.89-1.33-2.43.44-3.45l19.09-10.93a6.86,6.86,0,0,1,3-.83,6.6,6.6,0,0,1,3,.59l19.19,11c1.54.88,1.35,2.43-.44,3.45l-19,10.93a6.81,6.81,0,0,1-6.09.24Z"/><path class="cls-5" d="M456.93,732.24l-19.19-11c-1.54-.89-1.33-2.43.44-3.46l19-10.9a6.62,6.62,0,0,1,3-.85,6.74,6.74,0,0,1,3,.59l19.18,11c1.54.89,1.35,2.44-.44,3.46L463,732a6.81,6.81,0,0,1-3,.84A6.61,6.61,0,0,1,456.93,732.24Z"/><path class="cls-5" d="M427.45,715.32l-19.19-11c-1.54-.87-1.35-2.42.44-3.44l19-10.93a6.78,6.78,0,0,1,6-.25l19.18,11c1.47.88,1.34,2.43-.44,3.45l-19,10.93a6.7,6.7,0,0,1-6,.24Z"/><path class="cls-5" d="M398,698.37l-19.2-11c-1.54-.89-1.35-2.44.44-3.45l19-10.92a6.7,6.7,0,0,1,6-.25l19.19,11c1.54.89,1.34,2.45-.44,3.46l-19,10.92a6.7,6.7,0,0,1-3,.81A6.55,6.55,0,0,1,398,698.37Z"/><path class="cls-5" d="M428.28,681l-19.19-11c-1.54-.89-1.35-2.44.43-3.46l6.29-3.61a6.63,6.63,0,0,1,3-.83,6.86,6.86,0,0,1,3,.58l19.18,11c1.55.88,1.34,2.42-.44,3.45l-6.28,3.61a6.72,6.72,0,0,1-3,.83A6.47,6.47,0,0,1,428.28,681Z"/><path class="cls-5" d="M466.75,703.07l-19.18-11c-1.46-.89-1.35-2.44.43-3.46l6.28-3.6a6.61,6.61,0,0,1,3-.84,6.72,6.72,0,0,1,3,.58l19.18,11c1.54.87,1.35,2.42-.42,3.44l-6.29,3.61a6.68,6.68,0,0,1-6,.25Z"/><path class="cls-5" d="M496.1,720l-19.19-11c-1.46-.87-1.33-2.42.44-3.45l6.29-3.6a6.66,6.66,0,0,1,6-.25l19.19,11c1.54.89,1.35,2.44-.43,3.46l-6.28,3.6a6.68,6.68,0,0,1-3,.84A6.87,6.87,0,0,1,496.1,720Z"/><path class="cls-5" d="M525.47,736.78l-19.19-11c-1.47-.89-1.35-2.44.43-3.46L513,718.7a6.76,6.76,0,0,1,6-.25l19.18,11c1.54.87,1.34,2.43-.44,3.44l-6.28,3.61a6.66,6.66,0,0,1-6,.25Z"/><path class="cls-5" d="M554.81,753.66l-19.18-11c-1.47-.88-1.35-2.42.42-3.45l6.29-3.61a6.72,6.72,0,0,1,3-.83,6.61,6.61,0,0,1,3,.59l19.17,11c1.55.89,1.36,2.44-.42,3.46l-6.28,3.61a6.68,6.68,0,0,1-6,.25Z"/><path class="cls-5" d="M718.69,847.8l-19.19-11c-1.47-.89-1.35-2.42.43-3.45l6.28-3.62a6.78,6.78,0,0,1,6-.25l19.19,11c1.54.89,1.34,2.43-.44,3.45l-6.28,3.61a6.76,6.76,0,0,1-3,.83A6.61,6.61,0,0,1,718.69,847.8Z"/><path class="cls-5" d="M748.05,864.68l-19.18-11c-1.47-.87-1.36-2.42.42-3.44l6.31-3.58a6.6,6.6,0,0,1,3-.84,6.77,6.77,0,0,1,3,.59l19.19,11c1.53.88,1.34,2.42-.43,3.45l-6.29,3.61a6.9,6.9,0,0,1-3,.83A6.8,6.8,0,0,1,748.05,864.68Z"/><path class="cls-5" d="M777.4,881.55l-19.18-11c-1.47-.89-1.33-2.43.44-3.45l6.28-3.61a6.66,6.66,0,0,1,6-.25l19.19,11c1.54.89,1.35,2.43-.43,3.44l-6.28,3.63a6.86,6.86,0,0,1-3,.83A6.66,6.66,0,0,1,777.4,881.55Z"/><path class="cls-5" d="M806.75,898.42l-19.18-11c-1.47-.89-1.35-2.44.44-3.46l6.28-3.61a6.76,6.76,0,0,1,6-.25l19.19,11c1.53.88,1.34,2.42-.45,3.45l-6.28,3.61a6.72,6.72,0,0,1-3,.83A6.64,6.64,0,0,1,806.75,898.42Z"/><path class="cls-5" d="M516,766.3l-19.17-11c-1.54-.88-1.35-2.43.43-3.45l19-10.92a6.6,6.6,0,0,1,3-.84,6.72,6.72,0,0,1,3,.58l19.19,11c1.54.87,1.35,2.42-.43,3.44l-19,10.93a6.73,6.73,0,0,1-3,.83A6.93,6.93,0,0,1,516,766.3Z"/><path class="cls-5" d="M545.65,783.22l-19.19-11c-1.47-.87-1.35-2.42.43-3.44l19-10.93a6.74,6.74,0,0,1,6-.25l19.19,11c1.53.89,1.34,2.42-.43,3.45l-19,10.92a6.66,6.66,0,0,1-6,.25Z"/><path class="cls-5" d="M575.28,800.25l-19.18-11c-1.47-.9-1.35-2.44.42-3.47l19.08-10.91a6.77,6.77,0,0,1,3-.84,6.86,6.86,0,0,1,3,.59l19.19,11c1.54.89,1.35,2.44-.43,3.44l-19,10.93a6.63,6.63,0,0,1-3,.86A6.78,6.78,0,0,1,575.28,800.25Z"/><path class="cls-5" d="M605,817.26l-19.19-11c-1.54-.9-1.35-2.45.43-3.47l19-10.91a6.7,6.7,0,0,1,6-.25l19.17,11c1.54.89,1.35,2.43-.43,3.46L611,817a6.64,6.64,0,0,1-3,.84A6.74,6.74,0,0,1,605,817.26Z"/><path class="cls-5" d="M634.52,834.28l-19.18-11c-1.54-.9-1.35-2.45.43-3.47l19-10.91a6.7,6.7,0,0,1,6-.25l19.18,11c1.47.89,1.33,2.43-.44,3.46l-19,10.91a6.72,6.72,0,0,1-6,.26Z"/><path class="cls-5" d="M664.14,851.31l-19.18-11c-1.47-.9-1.35-2.43.44-3.45l19-10.93a6.6,6.6,0,0,1,3-.83,6.72,6.72,0,0,1,3,.58l19.19,11c1.54.88,1.33,2.42-.44,3.45l-19.08,10.93a6.74,6.74,0,0,1-5.94.24Z"/><path class="cls-5" d="M693.78,868.32l-19.19-11c-1.47-.88-1.33-2.43.44-3.45l19-10.93a6.73,6.73,0,0,1,3-.84,6.91,6.91,0,0,1,3,.59l19.18,11c1.47.88,1.35,2.42-.44,3.45l-19,10.93a6.94,6.94,0,0,1-3,.83A6.73,6.73,0,0,1,693.78,868.32Z"/><path class="cls-5" d="M723.4,885.35l-19.19-11c-1.47-.88-1.33-2.43.44-3.45L723.74,860a6.74,6.74,0,0,1,6-.23l19.09,11c1.54.9,1.34,2.43-.43,3.45L729.31,885.1a6.72,6.72,0,0,1-5.91.25Z"/><path class="cls-5" d="M753,902.38l-19.17-11c-1.46-.89-1.35-2.44.43-3.46l19-10.91a6.6,6.6,0,0,1,3-.84,6.73,6.73,0,0,1,3,.59l19.19,11c1.47.89,1.35,2.45-.43,3.45l-18.89,10.94a6.66,6.66,0,0,1-6.08.23Z"/><path class="cls-5" d="M346.61,768.31l-56.49-32.48c-1.54-.88-1.35-2.42.43-3.45l19.08-10.9a6.62,6.62,0,0,1,3-.85,6.86,6.86,0,0,1,3,.59l56.51,32.46c1.54.88,1.35,2.43-.43,3.45l-19,10.93a6.76,6.76,0,0,1-6.09.25Z"/><path class="cls-5" d="M710.66,977.41,654.16,945c-1.54-.89-1.35-2.44.42-3.45l19.09-10.93a6.72,6.72,0,0,1,3-.83,6.6,6.6,0,0,1,3,.59l56.5,32.46c1.54.88,1.35,2.42-.42,3.44l-19.08,10.93a6.8,6.8,0,0,1-3,.83A6.72,6.72,0,0,1,710.66,977.41Z"/><path class="cls-5" d="M592.13,947l-19.19-11c-1.54-.88-1.35-2.42.42-3.45l22.66-13a6.72,6.72,0,0,1,6-.24l19.18,11c1.47.89,1.35,2.42-.43,3.45l-22.65,13a6.6,6.6,0,0,1-3,.84A6.69,6.69,0,0,1,592.13,947Z"/><path class="cls-5" d="M377,823.33l-30.68-17.6c-1.54-.9-1.35-2.44.44-3.47l22.64-13a6.72,6.72,0,0,1,3-.83,6.6,6.6,0,0,1,3,.59l30.68,17.63c1.54.87,1.35,2.42-.42,3.44l-22.65,13a6.79,6.79,0,0,1-3,.82A6.87,6.87,0,0,1,377,823.33Z"/><path class="cls-5" d="M563.57,930.53l-30.68-17.62c-1.54-.89-1.33-2.44.44-3.46l22.64-13a6.74,6.74,0,0,1,3-.84,6.64,6.64,0,0,1,3,.59l30.68,17.62c1.54.89,1.33,2.43-.44,3.46l-22.64,13a6.7,6.7,0,0,1-6,.25Z"/><path class="cls-5" d="M419.73,847.91l-30.68-17.63c-1.54-.89-1.35-2.42.42-3.45l22.66-13a6.57,6.57,0,0,1,3-.84,6.73,6.73,0,0,1,3,.59l30.68,17.63c1.54.88,1.35,2.43-.43,3.45l-22.65,13a6.66,6.66,0,0,1-6,.25Z"/><path class="cls-5" d="M418.34,813.66l133.39,76.63a1.88,1.88,0,0,1,.9.67A1.82,1.82,0,0,1,553,892a1.79,1.79,0,0,1-.33,1.05,1.88,1.88,0,0,1-.9.67L528.63,907a6.76,6.76,0,0,1-6,0L389.25,830.37Z"/><path class="cls-5" d="M674.93,977.82,696.3,990.1c1.26.73,1.1,2-.35,2.83l-9.26,5.31a5.51,5.51,0,0,1-4.94.21L660.4,986.16c-1.27-.71-1.12-2,.35-2.81L670,978a5.47,5.47,0,0,1,4.92-.19Z"/><path class="cls-5" d="M645.05,960.64l21.37,12.27c1.26.73,1.1,2-.36,2.84L656.8,981a5.34,5.34,0,0,1-2.44.7,5.47,5.47,0,0,1-2.49-.49L630.51,969c-1.26-.73-1.12-2,.35-2.83l9.27-5.32a5.46,5.46,0,0,1,2.43-.67A5.62,5.62,0,0,1,645.05,960.64Z"/><path class="cls-5" d="M615.43,943.64l21.38,12.27c1.26.73,1.1,2-.35,2.83l-9.27,5.32a5.63,5.63,0,0,1-2.44.69,5.49,5.49,0,0,1-2.49-.49L600.9,952c-1.26-.72-1.11-2,.36-2.82l9.26-5.33a5.44,5.44,0,0,1,2.44-.68A5.52,5.52,0,0,1,615.43,943.64Z"/><path class="cls-5" d="M661.41,951.24l21.35,12.26c1.27.72,1.12,2-.35,2.82l-9.27,5.33a5.61,5.61,0,0,1-2.43.68,5.54,5.54,0,0,1-2.48-.47l-21.38-12.29c-1.26-.71-1.1-2,.36-2.82l9.26-5.33a5.51,5.51,0,0,1,2.45-.67A5.57,5.57,0,0,1,661.41,951.24Z"/><path class="cls-8" d="M974.88,916.74,409,591.62c-8.9-5.11-13.55-17.53-10.38-27.83l128-413.53c3.17-10.23,13-14.44,21.85-9.32l566,325.17c8.9,5.11,13.54,17.53,10.37,27.83l-128,413.55C993.63,917.74,983.85,921.91,974.88,916.74Z"/><path class="cls-9" d="M969.62,902.33l-549-315.72c-8.51-4.9-13-16.82-9.92-26.63L533,164.69c3-9.82,12.39-13.81,20.92-8.91l549,315.66c8.51,4.89,13,16.81,9.92,26.63L990.54,893.37C987.5,903.23,978.13,907.22,969.62,902.33Z"/><path class="cls-10" d="M969.62,902.33l-549-315.72c-8.51-4.9-13-16.82-9.92-26.63L533,164.69c3-9.82,12.39-13.81,20.92-8.91l549,315.66c8.51,4.89,13,16.81,9.92,26.63L990.54,893.37C987.5,903.23,978.13,907.22,969.62,902.33Z"/><path d="M969.62,902.33l-549-315.72c-8.51-4.9-13-16.82-9.92-26.63L533,164.69c3-9.82,12.39-13.81,20.92-8.91l549,315.66c8.51,4.89,13,16.81,9.92,26.63L990.54,893.37C987.5,903.23,978.13,907.22,969.62,902.33Z"/><path class="cls-5" d="M421.23,1009.79a28.35,28.35,0,0,1-13.79-3.2L258.53,921c-3.94-2.26-6.12-5.51-6.12-9.13,0-4.2,2.94-8.33,8.21-11.32l76.64-44c9.37-5.37,23.11-5.84,31.31-1.2l148.91,85.53c3.95,2.26,6.12,5.51,6.12,9.13,0,4.21-2.93,8.33-8.2,11.32l-76.65,44A35.84,35.84,0,0,1,421.23,1009.79ZM354.89,856.41a32,32,0,0,0-15.44,3.8l-76.64,44c-3.86,2.2-6.07,5-6.07,7.61s2.16,4.38,4,5.44l148.89,85.64c6.75,3.87,19.08,3.33,27-1.21l76.64-44.07c3.86-2.22,6.06-5,6.06-7.63s-2.16-4.38-4-5.42l-148.9-85.54a23.74,23.74,0,0,0-11.55-2.59Z"/><path class="cls-11" d="M1132.24,628l-159-86.42A10.17,10.17,0,0,1,969,530.11l52.6-170c1.32-4.22,5.33-5.93,9-3.83l159,86.42a10.2,10.2,0,0,1,4.27,11.44l-52.6,170C1139.91,628.36,1135.89,630.07,1132.24,628Z"/><path class="cls-12" d="M1190.57,442.11l-159-86.42a5.85,5.85,0,0,0-6.54.22,6.29,6.29,0,0,1,3.36.86l159,86.42a10.21,10.21,0,0,1,4.26,11.44l-52.61,170a7,7,0,0,1-2.44,3.6,6.16,6.16,0,0,0,3.59-1.39,6.26,6.26,0,0,0,2-3.24l52.61-170a10.18,10.18,0,0,0-.24-6.43A10.3,10.3,0,0,0,1190.57,442.11Z"/><path class="cls-11" d="M823.89,472.61,381.27,215.78a11.8,11.8,0,0,1-4.92-13.14L437.12,6.28c1.47-4.87,6.15-6.85,10.38-4.39l442.61,256.8a11.81,11.81,0,0,1,4.94,13.14L834.28,468.18C832.77,473,828.11,475,823.89,472.61Z"/><path class="cls-13" d="M891.57,257.93,449,1.05a6.67,6.67,0,0,0-7.56.25,7.34,7.34,0,0,1,3.88,1L887.89,259.1a11.91,11.91,0,0,1,4.63,5.77,11.7,11.7,0,0,1,.29,7.37L832,468.6a8.63,8.63,0,0,1-.91,2,.94.94,0,0,0-.1.57.87.87,0,0,0,.26.5.91.91,0,0,0,1.08.16,7.89,7.89,0,0,0,3.36-4.5L896.5,271.08a11.72,11.72,0,0,0-.3-7.38A11.85,11.85,0,0,0,891.57,257.93Z"/><g class="cls-14"><path class="cls-5" d="M633.45,294.88,567.9,257.67c-2-1.15-4.14-.56-4.73,1.33a5.13,5.13,0,0,0,2.63,5.49l65.58,37.27c2,1.15,4.15.55,4.73-1.33a5.11,5.11,0,0,0-2.66-5.55Z"/><path class="cls-5" d="M816.57,398.79,707.94,337.11c-2-1.14-4.15-.55-4.73,1.33a5.2,5.2,0,0,0,.41,3.18,5.09,5.09,0,0,0,2.23,2.31l108.63,61.68c2,1.15,4.14.55,4.72-1.33a5.12,5.12,0,0,0-2.63-5.49Z"/><path class="cls-5" d="M686.26,324.82l-30.41-17.23c-2-1.14-4.15-.55-4.72,1.33a5.12,5.12,0,0,0,.4,3.18,5.21,5.21,0,0,0,2.23,2.32l30.47,17.23c2,1.14,4.16.56,4.73-1.33a5.15,5.15,0,0,0-2.7-5.5Z"/><path class="cls-5" d="M570.33,331.34l-21.32-12c-2-1.16-4.14-.56-4.71,1.33a5.13,5.13,0,0,0,2.63,5.49l21.33,12.05c2,1.15,4.15.55,4.72-1.33a5.13,5.13,0,0,0-2.65-5.49Z"/><path class="cls-5" d="M662.63,383.82l-75.21-42.61c-2-1.16-4.15-.56-4.73,1.33a5,5,0,0,0,.41,3.17,5.17,5.17,0,0,0,2.21,2.32l75.22,42.68c2,1.16,4.16.56,4.73-1.33a5.15,5.15,0,0,0-2.63-5.56Z"/><path class="cls-5" d="M703.69,407l-21.32-12.1c-2-1.15-4.14-.55-4.71,1.33a5.12,5.12,0,0,0,.41,3.18,5.07,5.07,0,0,0,2.22,2.31l21.3,12.1c2,1.15,4.15.55,4.73-1.33a5.09,5.09,0,0,0-.42-3.17A5.17,5.17,0,0,0,703.69,407Z"/><path class="cls-5" d="M796,459.53l-75.22-42.69c-2-1.15-4.14-.55-4.72,1.33a5,5,0,0,0,.41,3.17,5.17,5.17,0,0,0,2.21,2.32l75.22,42.69c2,1.15,4.15.55,4.73-1.33a5.12,5.12,0,0,0-2.63-5.49Z"/><path class="cls-5" d="M654.42,415.19,539.58,350c-2-1.15-4.14-.56-4.71,1.33a5.13,5.13,0,0,0,2.63,5.49L652.32,422c2,1.16,4.15.56,4.73-1.31a5.06,5.06,0,0,0-.41-3.18A5.16,5.16,0,0,0,654.42,415.19Z"/><path class="cls-5" d="M765.88,478.5l-86.29-49c-2-1.14-4.14-.56-4.71,1.33a5.1,5.1,0,0,0,2.63,5.49l86.27,49c2,1.16,4.15.56,4.73-1.33a5.17,5.17,0,0,0-2.63-5.49Z"/><path class="cls-5" d="M595.71,418l-65.62-37.2c-2-1.15-4.16-.57-4.73,1.32a5.16,5.16,0,0,0,2.63,5.51l65.57,37.19c2,1.15,4.14.57,4.72-1.32a5.12,5.12,0,0,0-2.57-5.5Z"/><path class="cls-5" d="M699.28,476.8l-81.11-46.08c-2-1.15-4.14-.55-4.72,1.33a5.15,5.15,0,0,0,2.63,5.49l81.18,46.08c2,1.15,4.15.55,4.73-1.33a5.11,5.11,0,0,0-2.71-5.49Z"/><path class="cls-5" d="M872.24,430.31l-30.41-17.26c-2-1.15-4.14-.55-4.71,1.33a5.12,5.12,0,0,0,.4,3.18,5.19,5.19,0,0,0,2.22,2.32l30.4,17.25c2,1.15,4.14.55,4.73-1.33a5.13,5.13,0,0,0-2.63-5.49Z"/><path class="cls-5" d="M941.63,469.76,895,443.29c-2-1.16-4.15-.56-4.72,1.33a5.13,5.13,0,0,0,2.63,5.49l46.65,26.47c2,1.15,4.15.57,4.72-1.32a5.06,5.06,0,0,0-.4-3.18A5.14,5.14,0,0,0,941.63,469.76Z"/><path class="cls-5" d="M866.62,463.31l121.93,69.24a5.14,5.14,0,0,1,2.63,5.5c-.59,1.88-2.7,2.48-4.73,1.32L864.61,470.19a5.11,5.11,0,0,1-2.22-2.31,5.06,5.06,0,0,1-.4-3.18C862.48,462.76,864.6,462.16,866.62,463.31Z"/><path class="cls-5" d="M828.41,479.55l121.84,69.19a5.16,5.16,0,0,1,2.64,5.49c-.6,1.89-2.69,2.48-4.73,1.33L826.32,486.38a5.14,5.14,0,0,1-2.63-5.5C824.26,479,826.37,478.4,828.41,479.55Z"/><path class="cls-5" d="M626.16,326.86l108.63,61.67a5.14,5.14,0,0,1,2.22,2.32,5,5,0,0,1,.4,3.18c-.57,1.88-2.68,2.46-4.72,1.32L624.07,333.68a5.12,5.12,0,0,1-2.64-5.49C622,326.3,624.14,325.7,626.16,326.86Z"/><path class="cls-5" d="M813.83,433.35l30.41,17.25a5.21,5.21,0,0,1,2.22,2.33,5.12,5.12,0,0,1,.4,3.18c-.57,1.88-2.69,2.47-4.71,1.31l-30.4-17.25a5.13,5.13,0,0,1-2.65-5.49C809.69,432.79,811.81,432.21,813.83,433.35Z"/><path class="cls-5" d="M760.37,403l30.39,17.25a5.18,5.18,0,0,1,2.23,2.33,5.12,5.12,0,0,1,.4,3.18c-.57,1.88-2.68,2.47-4.72,1.33l-30.41-17.26a5.17,5.17,0,0,1-2.21-2.32,5.06,5.06,0,0,1-.41-3.18C756.15,402.45,758.33,401.87,760.37,403Z"/><path class="cls-5" d="M558.46,288.46l46.65,26.44a5.1,5.1,0,0,1,2.64,5.49c-.59,1.88-2.7,2.48-4.72,1.33l-46.66-26.44a5.11,5.11,0,0,1-2.22-2.33,5.05,5.05,0,0,1-.4-3.18C554.32,287.88,556.43,287.3,558.46,288.46Z"/><path class="cls-5" d="M586.27,448.81,520.71,411.6c-2-1.15-4.14-.55-4.72,1.33a5.09,5.09,0,0,0,.41,3.17,5.17,5.17,0,0,0,2.21,2.32l65.58,37.21c2,1.15,4.14.55,4.72-1.33a5.1,5.1,0,0,0-2.64-5.49Z"/><path class="cls-5" d="M769.38,552.71,660.75,491.05c-2-1.15-4.16-.57-4.73,1.32a5.13,5.13,0,0,0,.41,3.18,5.21,5.21,0,0,0,2.22,2.33l108.62,61.66c2,1.15,4.15.55,4.73-1.33a5.06,5.06,0,0,0-.41-3.18A5.17,5.17,0,0,0,769.38,552.71Z"/><path class="cls-5" d="M639.08,478.78l-30.41-17.25c-2-1.15-4.15-.55-4.73,1.33a5.15,5.15,0,0,0,2.64,5.43L637,485.55c2,1.15,4.16.55,4.73-1.33a5.16,5.16,0,0,0-2.62-5.44Z"/><path class="cls-5" d="M523.15,485.28l-21.32-12.1c-2-1.14-4.14-.55-4.71,1.33a5.15,5.15,0,0,0,.4,3.19,5.21,5.21,0,0,0,2.23,2.32l21.3,12.08c2,1.16,4.15.57,4.73-1.31a5.14,5.14,0,0,0-2.63-5.51Z"/><path class="cls-5" d="M615.46,537.76l-75.21-42.67c-2-1.16-4.14-.57-4.73,1.31a5.16,5.16,0,0,0,2.63,5.51l75.22,42.67c2,1.15,4.15.57,4.72-1.32a5.1,5.1,0,0,0-2.63-5.5Z"/><path class="cls-5" d="M656.49,561l-21.31-12.1c-2-1.15-4.14-.55-4.71,1.33a5.08,5.08,0,0,0,2.63,5.49l21.3,12.1c2,1.15,4.15.55,4.73-1.33a5.16,5.16,0,0,0-2.64-5.49Z"/><path class="cls-5" d="M748.81,613.42l-75.22-42.68c-2-1.14-4.14-.56-4.72,1.33a5,5,0,0,0,.41,3.17,5.09,5.09,0,0,0,2.22,2.32l75.2,42.66c2,1.15,4.15.55,4.72-1.33a5.06,5.06,0,0,0-.41-3.16A5.17,5.17,0,0,0,748.81,613.42Z"/><path class="cls-5" d="M607.24,569.08,492.4,503.92c-2-1.16-4.14-.56-4.71,1.32a5.06,5.06,0,0,0,.41,3.18,5.14,5.14,0,0,0,2.22,2.32L605.14,575.9c2,1.14,4.14.56,4.73-1.33a5,5,0,0,0-.41-3.17A5.14,5.14,0,0,0,607.24,569.08Z"/><path class="cls-5" d="M796.39,676.46l-164-93c-2-1.15-4.15-.57-4.73,1.32a5.06,5.06,0,0,0,.42,3.18,5.16,5.16,0,0,0,2.22,2.33l164,93c2,1.14,4.14.55,4.71-1.33a5.09,5.09,0,0,0-.41-3.19A5.21,5.21,0,0,0,796.39,676.46Z"/><path class="cls-5" d="M548.53,572,483,534.78c-2-1.15-4.15-.56-4.72,1.33a5,5,0,0,0,.41,3.17,5.17,5.17,0,0,0,2.21,2.32l65.58,37.21c2,1.15,4.14.55,4.71-1.33a5.07,5.07,0,0,0-.42-3.16A5.14,5.14,0,0,0,548.53,572Z"/><path class="cls-5" d="M601.32,601.93l-30.4-17.26c-2-1.13-4.14-.55-4.71,1.33a5.11,5.11,0,0,0,2.62,5.5l30.41,17.25c2,1.15,4.13.57,4.72-1.32a5.13,5.13,0,0,0-.41-3.18A5.21,5.21,0,0,0,601.32,601.93Z"/><path class="cls-5" d="M825.06,584.29,794.64,567c-2-1.15-4.13-.55-4.7,1.33a5.05,5.05,0,0,0,.4,3.18,5.11,5.11,0,0,0,2.22,2.31L823,591.12c2,1.15,4.13.55,4.72-1.33a5.12,5.12,0,0,0-.41-3.18A5.19,5.19,0,0,0,825.06,584.29Z"/><path class="cls-5" d="M826.3,512.53l-30.4-17.25c-2-1.16-4.14-.57-4.71,1.31a5.11,5.11,0,0,0,2.63,5.51l30.39,17.33c2,1.15,4.15.55,4.73-1.33a5.12,5.12,0,0,0-2.64-5.57Z"/><path class="cls-5" d="M894.45,623.68l-46.66-26.49c-2-1.15-4.15-.55-4.72,1.33A5.08,5.08,0,0,0,845.7,604l46.65,26.49c2,1.15,4.14.55,4.73-1.33a5.12,5.12,0,0,0-2.63-5.49Z"/><path class="cls-5" d="M819.44,617.29l121.84,69.18a5.13,5.13,0,0,1,2.65,5.49c-.59,1.89-2.7,2.49-4.73,1.33L817.36,624.11a5.13,5.13,0,0,1-2.63-5.49C815.31,616.7,817.42,616.12,819.44,617.29Z"/><path class="cls-5" d="M579,480.82l108.63,61.66a5.13,5.13,0,0,1,2.63,5.49c-.58,1.89-2.69,2.49-4.73,1.33L576.88,487.64a5.14,5.14,0,0,1-2.63-5.5C574.84,480.25,577,479.67,579,480.82Z"/><path class="cls-5" d="M766.65,587.31l30.4,17.26a5.12,5.12,0,0,1,2.63,5.49c-.58,1.88-2.69,2.48-4.72,1.33l-30.41-17.25a5.24,5.24,0,0,1-2.22-2.32,5.12,5.12,0,0,1-.41-3.18C762.51,586.76,764.62,586.16,766.65,587.31Z"/><path class="cls-5" d="M713.18,557l30.42,17.25a5.17,5.17,0,0,1,2.21,2.32,5.06,5.06,0,0,1,.41,3.18c-.58,1.88-2.7,2.48-4.73,1.33L711.1,563.79a5.08,5.08,0,0,1-2.63-5.49C709,556.42,711.15,555.82,713.18,557Z"/><path class="cls-5" d="M511.27,442.41,558,468.88a5,5,0,0,1,2.23,2.31,5.12,5.12,0,0,1,.4,3.18c-.57,1.88-2.69,2.48-4.71,1.33l-46.71-26.4a5.1,5.1,0,0,1-2.64-5.49C507.13,441.85,509.25,441.25,511.27,442.41Z"/></g><path d="M479.72,135.67l9.28-29.8,8.61,5.15-25.52,81.67-8.59-5,10.38-33.3-11-6.48-10.36,33.4-8.66-5,25.46-82.26L478,99.25l-9.28,29.89Z"/><path d="M511.42,189l-6,23-8.47-4.9,5.2-19.24a28.48,28.48,0,0,0,1.3-9.07,5.46,5.46,0,0,0-2.54-4.59l-5.2-3-9.36,29.8L477.77,196l25.54-81.55,17.13,10.25q5,3,5.7,11T523.59,154q-4.73,14.94-12,16.43Q514.86,176,511.42,189Zm-10.73-33.83,6.11,3.6a3.18,3.18,0,0,0,4.16-.6,14.62,14.62,0,0,0,3.33-6.22,19.22,19.22,0,0,0,1.07-7.31,5.1,5.1,0,0,0-2.23-4.25l-6.57-3.9Z"/><path d="M534.24,231.72q-6.39-3.69-7.73-13.18t2.73-23.32l8.3,4.86q-3.35,11.67,2.25,14.93,4.88,2.84,7.42-5.14a12.61,12.61,0,0,0,.7-5.4,12.38,12.38,0,0,0-1.94-4.81l-5.08-7.4q-6.72-9.7-.95-27.86,3.54-11.15,9-16.41t11.8-1.48q6,3.62,7.28,12.4t-2.45,21.23l-8.08-4.79q2.5-9.82-2-12.51a3.15,3.15,0,0,0-3.75.13,8.81,8.81,0,0,0-2.83,4.6q-1.62,5.1.81,8.82l5.3,7.71q7.14,10.52,1.12,29.26-4,12.33-9.78,17.16T534.24,231.72Z"/><path d="M565.69,249.91q-6.5-3.75-7.52-13.47t3.61-24.18l16.94-52.7,8.3,5-17,52.71q-4.06,12.63,1.19,15.68t9.28-9.55l17-52.57,8.23,4.93-17,52.34q-4.68,14.46-10.62,20T565.69,249.91Z"/><path d="M620.41,218.86l9.39-28.73,8.13,4.86-25.82,78.77-8.11-4.7,10.5-32.12-10.42-6.12L593.59,263l-8.18-4.73L611.18,179l8.19,4.91L610,212.7Z"/><path d="M652.17,246.19q1.88,3.48,1.59,9.6a49.06,49.06,0,0,1-2.61,13.12q-3.36,10.17-8.32,15t-9.89,1.95l-15.47-9,25.83-78.65,15.41,9.22Q663,210,663.83,217t-2.13,15.9Q657.7,245,652.17,246.19ZM652.09,223,646,219.34l-4.59,13.93,6,3.52c2.17,1.28,4-.42,5.59-5.13a14,14,0,0,0,.83-5.45A3.9,3.9,0,0,0,652.09,223ZM631,264.87l6.37,3.72a2.86,2.86,0,0,0,3.72-.58,13.71,13.71,0,0,0,3.09-5.64,17.2,17.2,0,0,0,1.06-6.78,4.6,4.6,0,0,0-2-3.89l-6.59-3.87Z"/><path d="M676.51,311l-8.32-4.81L670.91,292l-10.19-5.93-6.11,12.27-8.35-4.83,37-71.43,8.38,5Zm-4-48.55-4.88,9.79L674,276l2.17-11.37,3.56-17.39Z"/><path d="M700.33,232.34l25.44,15.22-5.94,17.61L711.12,260l-20,59.5-7.85-4.55,20-59.61-8.86-5.27Z"/><path d="M737,254.28l-20.11,59.37,13.77,8L724.76,339l-21.54-12.47,26-76.9Z"/><path d="M755.38,356.71l-8-4.66,2.79-13.9-9.85-5.74-6.08,12-8.08-4.68,36.75-70,8.09,4.85ZM752,309.28l-4.85,9.6,6.2,3.63,2.23-11.12,3.65-17Z"/><path d="M789.61,351.51l-6.29,21.37-7.55-4.37,5.4-17.87a27.19,27.19,0,0,0,1.49-8.39,4.69,4.69,0,0,0-2.15-4.19l-4.63-2.71-9.55,27.7-7.6-4.41,26.06-75.76L800,292q4.41,2.64,4.81,10t-3,17q-4.82,13.88-11.51,15.4Q793.19,339.52,789.61,351.51Zm-8.61-31,5.44,3.2a2.9,2.9,0,0,0,3.8-.63,14.6,14.6,0,0,0,3.26-5.81,18.62,18.62,0,0,0,1.22-6.77q-.15-2.84-1.89-3.87L787,303.13Z"/><path d="M795.45,379.91l-7.5-4.35,26.1-75.17,7.52,4.5Z"/><path d="M1078.61,490.19a7.52,7.52,0,0,1-.17-5,6.27,6.27,0,0,1,2.11-3l7.87,4.39c.73,3.2-.47,6.3-2.92,7.46C1082.88,495.37,1079.73,493.62,1078.61,490.19Zm8.7,8.77a7.8,7.8,0,0,1-7.32-.29,12.48,12.48,0,0,1-5.34-6.62,14.52,14.52,0,0,1-.15-9.05,13.43,13.43,0,0,1,1.62-3.29l-32.06-17.88-12.42,38.24c-1.29,4,.35,8.73,3.65,10.56l69.57,38.56c3.27,1.81,6.94,0,8.15-4l11.7-38.41L1092.85,489C1092.74,493.44,1090.71,497.35,1087.31,499Zm40.22-23.82-68.4-38.29c-3.24-1.81-6.92-.13-8.18,3.74l-5.35,16.5,80.56,45,5-16.58C1132.4,481.58,1130.74,476.93,1127.53,475.14Zm-16.09-25.51-27.27-15.29-3,9.34L1108.53,459Z"/></g></g></svg>