<svg xmlns="http://www.w3.org/2000/svg" xmlns:xlink="http://www.w3.org/1999/xlink" viewBox="0 0 1195.25 1325.84"><defs><style>.cls-1{fill:#020230;opacity:0.1;}.cls-1,.cls-10{isolation:isolate;}.cls-2{fill:url(#linear-gradient);}.cls-3{fill:url(#linear-gradient-2);}.cls-4{fill:url(#linear-gradient-3);}.cls-5{fill:#fff;}.cls-10,.cls-6{opacity:0.4;}.cls-10,.cls-7{fill:#06033e;}.cls-8{fill:url(#linear-gradient-4);}.cls-9{fill:url(#linear-gradient-5);}.cls-11{fill:#f4f4f4;}.cls-12{fill:url(#linear-gradient-6);}.cls-13{fill:url(#linear-gradient-7);}.cls-14{fill:url(#linear-gradient-8);}.cls-15{opacity:0.3;}</style><linearGradient id="linear-gradient" x1="408.08" y1="-11050.6" x2="1147.4" y2="-11063.52" gradientTransform="matrix(1, 0, 0, -1, 0, -10527.43)" gradientUnits="userSpaceOnUse"><stop offset="0" stop-color="#5ca56d"/><stop offset="1" stop-color="#08280e"/></linearGradient><linearGradient id="linear-gradient-2" x1="0.17" y1="-11415.78" x2="978.54" y2="-11415.78" gradientTransform="matrix(1, 0, 0, -1, 0, -10527.43)" gradientUnits="userSpaceOnUse"><stop offset="0" stop-color="#5ca56d"/><stop offset="1" stop-color="#255e33"/></linearGradient><linearGradient id="linear-gradient-3" x1="0" y1="-11398.94" x2="978.71" y2="-11398.94" xlink:href="#linear-gradient-2"/><linearGradient id="linear-gradient-4" x1="397.6" y1="-11058.98" x2="1125.79" y2="-11058.98" xlink:href="#linear-gradient-2"/><linearGradient id="linear-gradient-5" x1="409.77" y1="-11059.17" x2="1113.85" y2="-11059.17" gradientTransform="matrix(1, 0, 0, -1, 0, -10527.43)" gradientUnits="userSpaceOnUse"><stop offset="0" stop-color="#3919ba"/><stop offset="1" stop-color="#6507f9"/></linearGradient><linearGradient id="linear-gradient-6" x1="1025" y1="-11021.43" x2="1195.25" y2="-11021.43" xlink:href="#linear-gradient-2"/><linearGradient id="linear-gradient-7" x1="945.62" y1="-11274.68" x2="1115.86" y2="-11274.68" xlink:href="#linear-gradient-2"/><linearGradient id="linear-gradient-8" x1="441.39" y1="-10764.67" x2="896.95" y2="-10764.67" xlink:href="#linear-gradient-2"/></defs><g id="Layer_2" data-name="Layer 2"><g id="Layer_1-2" data-name="Layer 1"><path class="cls-1" d="M573.8,1322.62,5.59,994.57c-8.28-4.79-7.24-13.14,2.33-18.66L372.59,765.36c9.57-5.52,24-6.12,32.29-1.35l568.23,328.06c8.29,4.78,7.25,13.21-2.32,18.65L606.11,1321.27C596.56,1326.79,582.08,1327.4,573.8,1322.62Z"/><path class="cls-2" d="M1124.08,465.12l-566-326.76a14.64,14.64,0,0,0-11.55-1.66L536,140.38l3.69.88a18.49,18.49,0,0,0-3.47,6.48L408.26,563.28c-3.17,10.28,1.47,22.83,10.38,28L984.61,918a17.36,17.36,0,0,0,4.16,1.71l-1.47,3,10-3.51a16,16,0,0,0,9.1-10.58l128-415.58C1137.61,482.78,1133,470.26,1124.08,465.12Z"/><path class="cls-3" d="M964.33,933.54l.2.25L405.49,611c-8.22-4.74-22.59-4.13-32.07,1.34L12.22,820.89l-12-4.59,3.39,17A10.07,10.07,0,0,0,9,839.94l564.21,325.74c8.22,4.76,22.58,4.15,32.07-1.33L967.4,955.29c4.4-2.58,7-5.78,7.67-8.95l3.47-16.44Z"/><path class="cls-4" d="M573.8,1150.81,5.59,822.77c-8.28-4.79-7.24-13.21,2.33-18.66L372.59,593.56c9.57-5.53,24-6.12,32.29-1.35L973.11,920.27c8.29,4.78,7.25,13.21-2.32,18.66L606.11,1149.47C596.56,1155,582.08,1155.6,573.8,1150.81Z"/><path class="cls-5" d="M970.8,934.54,606.11,1145.05c-9.55,5.51-24,6.12-32.29,1.34L5.59,818.33a10.65,10.65,0,0,1-5.17-5.87c-1.08,3.79.52,7.61,5.17,10.27L573.8,1150.8c8.28,4.79,22.76,4.18,32.3-1.34L970.8,939c6.31-3.64,8.8-8.5,7.48-12.76C977.43,929.13,975,932.08,970.8,934.54Z"/><g class="cls-6"><path class="cls-7" d="M276.63,769.52,257.44,758.4c-1.54-.89-1.35-2.45.42-3.47l22.68-13a6.64,6.64,0,0,1,3-.84,6.72,6.72,0,0,1,3,.58l19.18,11.09c1.55.9,1.36,2.43-.44,3.46l-22.63,13.08a6.83,6.83,0,0,1-3,.85A6.62,6.62,0,0,1,276.63,769.52Z"/><path class="cls-7" d="M306.25,786.63l-19.19-11.08c-1.54-.88-1.35-2.44.43-3.46L310.14,759a6.6,6.6,0,0,1,3-.84,6.73,6.73,0,0,1,3,.59l19.19,11.07c1.54.89,1.35,2.45-.43,3.46l-22.65,13.08a6.58,6.58,0,0,1-6,.25Z"/><path class="cls-7" d="M335.87,803.73l-19.19-11.08c-1.54-.89-1.35-2.45.43-3.48l22.65-13.06a6.6,6.6,0,0,1,3-.84,6.73,6.73,0,0,1,3,.59L365,786.93c1.54.9,1.35,2.45-.43,3.48l-22.65,13.06a6.7,6.7,0,0,1-6,.26Z"/><path class="cls-7" d="M376.85,789.6l-19.19-11.08c-1.47-.88-1.35-2.44.44-3.46l19-11a6.66,6.66,0,0,1,6-.24l19.19,11.06c1.54.9,1.34,2.44-.44,3.47l-19,11a6.7,6.7,0,0,1-6,.24Z"/><path class="cls-7" d="M406.46,806.7l-19.18-11.07c-1.47-.89-1.34-2.45.44-3.48l19.07-11a6.57,6.57,0,0,1,3-.84,6.47,6.47,0,0,1,3,.59L432,792c1.54.9,1.35,2.45-.44,3.48l-19,11a6.74,6.74,0,0,1-6.08.25Z"/><path class="cls-7" d="M436.14,823.79,416.9,812.7c-1.47-.9-1.34-2.46.44-3.48l19-11a6.6,6.6,0,0,1,3-.84,6.73,6.73,0,0,1,3,.59l19.19,11.07c1.54.9,1.35,2.45-.44,3.48l-19,11a6.65,6.65,0,0,1-6,.27Z"/><path class="cls-7" d="M465.71,840.91l-19.17-11.07c-1.54-.9-1.35-2.44.43-3.47l19-11a6.62,6.62,0,0,1,3-.85,6.74,6.74,0,0,1,3,.6l19.19,11.08c1.47.88,1.35,2.44-.43,3.47l-19,10.9a6.6,6.6,0,0,1-3,.87A6.53,6.53,0,0,1,465.71,840.91Z"/><path class="cls-7" d="M495.35,858l-19.19-11.08c-1.54-.88-1.35-2.44.43-3.46l19-11a6.6,6.6,0,0,1,3-.84,6.72,6.72,0,0,1,3,.58l19.19,11.09c1.47.88,1.35,2.43-.43,3.46l-19,11a6.7,6.7,0,0,1-6,.24Z"/><path class="cls-7" d="M525,875.11l-19.18-11c-1.54-.88-1.35-2.43.42-3.46l19-11a6.72,6.72,0,0,1,3-.83,6.63,6.63,0,0,1,3,.58l19.18,11.08c1.54.88,1.35,2.44-.42,3.47l-19,11a6.63,6.63,0,0,1-6,.2Z"/><path class="cls-7" d="M554.59,892.21l-19.18-11.08c-1.54-.88-1.35-2.43.42-3.46l19-11a6.7,6.7,0,0,1,6-.25L580,877.52c1.53.9,1.34,2.43-.43,3.46L560.5,892a6.8,6.8,0,0,1-2.93.81A6.53,6.53,0,0,1,554.59,892.21Z"/><path class="cls-7" d="M584.22,909.33,565,898.27c-1.54-.9-1.35-2.46.43-3.48l19.08-11a6.61,6.61,0,0,1,3-.84,6.77,6.77,0,0,1,3,.59l19.19,11.07c1.46.9,1.33,2.45-.45,3.48l-19.08,11a6.61,6.61,0,0,1-6,.24Z"/><path class="cls-7" d="M613.83,926.43l-19.15-11.07c-1.54-.9-1.35-2.45.44-3.48l19-11a6.91,6.91,0,0,1,3-.84,6.74,6.74,0,0,1,3,.59l19.19,11.07c1.54.9,1.34,2.45-.44,3.48l-19.08,11a6.68,6.68,0,0,1-6,.25Z"/><path class="cls-7" d="M643.47,943.52l-19.19-11.07c-1.47-.89-1.34-2.44.44-3.46l19-11a6.62,6.62,0,0,1,3-.85,6.73,6.73,0,0,1,3,.59l19.19,11.09c1.47.88,1.35,2.44-.44,3.47l-19,11a6.86,6.86,0,0,1-3,.81A6.69,6.69,0,0,1,643.47,943.52Z"/><path class="cls-7" d="M420.5,781.5l-19.19-11.07c-1.46-.9-1.35-2.45.43-3.48l19-11a6.62,6.62,0,0,1,3-.85,6.71,6.71,0,0,1,3,.6l19.19,11.07c1.54.89,1.35,2.45-.43,3.48l-19,11a6.58,6.58,0,0,1-6,.25Z"/><path class="cls-7" d="M390.43,764.14l-19.18-11.08c-1.54-.88-1.35-2.44.43-3.46l19-11a6.87,6.87,0,0,1,3-.84,6.74,6.74,0,0,1,3,.6l19.19,11.08c1.54.88,1.35,2.43-.43,3.46l-18.89,11a6.7,6.7,0,0,1-3,.86A6.62,6.62,0,0,1,390.43,764.14Z"/><path class="cls-7" d="M360.31,746.75,319,722.9c-1.54-.88-1.35-2.44.44-3.47l19-10.95a6.73,6.73,0,0,1,3-.83,6.65,6.65,0,0,1,3,.58l41.31,23.86c1.54.89,1.35,2.45-.43,3.48l-19,11a6.62,6.62,0,0,1-6,.22Z"/><path class="cls-7" d="M381.36,725.61l-33.53-19.36c-1.47-.9-1.35-2.44.43-3.47l19-11a6.59,6.59,0,0,1,3-.83,6.73,6.73,0,0,1,3,.59l33.52,19.35c1.54.89,1.35,2.45-.43,3.47l-19.08,11a6.74,6.74,0,0,1-5.92.25Z"/><path class="cls-7" d="M450.13,798.61l-19.19-11.07c-1.54-.9-1.35-2.44.42-3.47l19-11a6.68,6.68,0,0,1,3-.84,6.61,6.61,0,0,1,3,.59l19.17,11.09c1.47.87,1.36,2.43-.42,3.45l-19,11a6.63,6.63,0,0,1-3,.86A6.73,6.73,0,0,1,450.13,798.61Z"/><path class="cls-7" d="M479.75,815.72l-19.19-11.08c-1.54-.88-1.35-2.44.43-3.47l19-11a6.61,6.61,0,0,1,3-.84,6.72,6.72,0,0,1,3,.58l19.13,11c1.54.88,1.35,2.44-.42,3.46l-19,11a6.67,6.67,0,0,1-2.95.86A6.77,6.77,0,0,1,479.75,815.72Z"/><path class="cls-7" d="M509.37,832.82l-19.19-11.09c-1.54-.88-1.35-2.43.44-3.47l19-11a6.73,6.73,0,0,1,3-.83,6.8,6.8,0,0,1,3,.59l19.18,11.08c1.47.88,1.34,2.44-.44,3.46l-19,11a6.61,6.61,0,0,1-3,.85A6.79,6.79,0,0,1,509.37,832.82Z"/><path class="cls-7" d="M539,849.91l-19.17-11.09c-1.55-.88-1.34-2.43.44-3.46l19-10.92a6.68,6.68,0,0,1,6-.25l19.18,11.07c1.54.9,1.34,2.43-.44,3.46l-19,11a6.74,6.74,0,0,1-6,.2Z"/><path class="cls-7" d="M568.6,867,549.42,856c-1.47-.89-1.34-2.45.44-3.48l19-11a6.72,6.72,0,0,1,6-.26l19.18,11.09c1.54.89,1.35,2.45-.44,3.48l-19,11a6.66,6.66,0,0,1-6,.24Z"/><path class="cls-7" d="M598.24,884.14l-19.18-11.07c-1.54-.9-1.35-2.45.43-3.48l19.08-11a6.62,6.62,0,0,1,6-.26l19.19,11.08c1.47.88,1.35,2.44-.42,3.47l-19.08,11a6.66,6.66,0,0,1-6,.26Z"/><path class="cls-7" d="M627.88,901.23,608.7,890.16c-1.54-.9-1.35-2.44.42-3.47l19-11a6.64,6.64,0,0,1,6-.24l19.19,11.08c1.46.88,1.34,2.44-.43,3.46l-19,11a6.68,6.68,0,0,1-6,.25Z"/><path class="cls-7" d="M657.49,918.39,638.31,907.3c-1.55-.88-1.36-2.43.42-3.46l19.08-11a6.64,6.64,0,0,1,3-.84,6.73,6.73,0,0,1,3,.59l19.11,11.1c1.47.87,1.35,2.43-.42,3.46l-19.09,11a6.72,6.72,0,0,1-5.93.24Z"/><path class="cls-7" d="M687.17,935.45,668,924.37c-1.46-.89-1.35-2.44.43-3.47l19-11a6.73,6.73,0,0,1,3-.83,6.59,6.59,0,0,1,3,.58l19.18,11.08c1.54.89,1.35,2.44-.43,3.47l-19.09,11a6.66,6.66,0,0,1-5.92.25Z"/><path class="cls-7" d="M739.8,965.84l-41.86-24.15c-1.55-.9-1.36-2.45.43-3.47l19-11a6.64,6.64,0,0,1,3-.84,6.8,6.8,0,0,1,3,.59l41.85,24.16c1.54.9,1.35,2.45-.43,3.48l-19,11a6.74,6.74,0,0,1-3,.85A6.6,6.6,0,0,1,739.8,965.84Z"/><path class="cls-7" d="M797.46,932.56l-35.33-20.4c-1.55-.89-1.35-2.44.42-3.47l19-11a6.68,6.68,0,0,1,6-.25l35.32,20.41c1.47.88,1.35,2.43-.42,3.46l-19,11a6.87,6.87,0,0,1-3,.84A6.73,6.73,0,0,1,797.46,932.56Z"/><path class="cls-7" d="M502,795.26l-19.19-11.07c-1.54-.89-1.35-2.44.43-3.46l19-11a6.68,6.68,0,0,1,3-.84,6.49,6.49,0,0,1,3,.59l19.19,11.08c1.47.88,1.33,2.43-.44,3.46L508.09,795.1a6.81,6.81,0,0,1-3,.81A6.72,6.72,0,0,1,502,795.26Z"/><path class="cls-7" d="M471.64,777.73l-19.18-11.08c-1.55-.89-1.35-2.45.42-3.48l19.09-11a6.57,6.57,0,0,1,3-.84,6.73,6.73,0,0,1,3,.59L497.15,763c1.55.89,1.36,2.45-.42,3.48l-19.08,11a6.72,6.72,0,0,1-6,.26Z"/><path class="cls-7" d="M441.27,760.19l-19.19-11.07c-1.47-.89-1.34-2.45.44-3.48l19-11a6.6,6.6,0,0,1,3-.84,6.49,6.49,0,0,1,3,.59l19.18,11.07c1.54.89,1.35,2.44-.44,3.48l-19,11a6.7,6.7,0,0,1-6,.25Z"/><path class="cls-7" d="M410.92,742.66l-19.18-11.07c-1.54-.89-1.35-2.45.42-3.48l19.09-11a6.48,6.48,0,0,1,3-.84,6.59,6.59,0,0,1,3,.58L436.45,728c1.47.89,1.34,2.43-.44,3.46l-19.08,11a6.49,6.49,0,0,1-3,.85A6.74,6.74,0,0,1,410.92,742.66Z"/><path class="cls-7" d="M531.57,812.36l-19.09-11.08c-1.54-.88-1.35-2.44.44-3.47l19-11a6.78,6.78,0,0,1,6-.25l19.18,11.08c1.55.89,1.34,2.44-.44,3.47l-19,11a6.67,6.67,0,0,1-3,.86A6.79,6.79,0,0,1,531.57,812.36Z"/><path class="cls-7" d="M561.24,829.47l-19.18-11.09c-1.47-.88-1.34-2.43.44-3.46l19-11a6.73,6.73,0,0,1,3-.84,6.6,6.6,0,0,1,3,.59l19.19,11.08c1.54.9,1.35,2.43-.44,3.46l-19,11a6.74,6.74,0,0,1-3,.85A6.66,6.66,0,0,1,561.24,829.47Z"/><path class="cls-7" d="M590.87,846.56,571.7,835.48c-1.47-.88-1.35-2.44.42-3.47l19-11a6.66,6.66,0,0,1,6-.25l19.18,11.06c1.47.9,1.36,2.45-.42,3.47l-19.08,11a6.81,6.81,0,0,1-3,.83A6.73,6.73,0,0,1,590.87,846.56Z"/><path class="cls-7" d="M620.49,863.68l-19.17-11.07c-1.47-.89-1.35-2.45.43-3.48l19-11a6.66,6.66,0,0,1,6-.25L645.94,849c1.55.89,1.36,2.45-.42,3.48l-19.08,11a6.81,6.81,0,0,1-3,.83A6.73,6.73,0,0,1,620.49,863.68Z"/><path class="cls-7" d="M650.13,880.77,631,869.71c-1.55-.9-1.36-2.46.42-3.48l19.08-11a6.64,6.64,0,0,1,3-.84,6.74,6.74,0,0,1,3,.59l19.18,11.07c1.47.9,1.36,2.45-.42,3.48l-19,11a6.75,6.75,0,0,1-3,.86A6.63,6.63,0,0,1,650.13,880.77Z"/><path class="cls-7" d="M679.82,897.86l-19.18-11.07c-1.47-.89-1.36-2.43.42-3.46l19.08-11a6.81,6.81,0,0,1,3-.84,6.74,6.74,0,0,1,3,.59l19,11.08c1.55.88,1.36,2.44-.42,3.46l-19.08,11a6.7,6.7,0,0,1-5.86.23Z"/><path class="cls-7" d="M709.38,915l-19.19-11.08c-1.47-.88-1.35-2.44.42-3.46l19-11a6.81,6.81,0,0,1,3-.84,6.74,6.74,0,0,1,3,.59l19.17,11.08c1.47.88,1.36,2.44-.42,3.47l-19,11a6.56,6.56,0,0,1-3,.83A6.66,6.66,0,0,1,709.38,915Z"/><path class="cls-7" d="M739,932.09,719.82,921c-1.47-.89-1.35-2.44.45-3.47l19-11a6.61,6.61,0,0,1,3-.84,6.8,6.8,0,0,1,3,.59l19.18,11.08c1.54.9,1.34,2.44-.44,3.47l-19.08,11a6.89,6.89,0,0,1-2.94.82A6.82,6.82,0,0,1,739,932.09Z"/><path class="cls-7" d="M768.62,949.22l-19.18-11.06c-1.47-.9-1.34-2.45.44-3.48l19-11a6.6,6.6,0,0,1,3-.84,6.7,6.7,0,0,1,3,.59l19.19,11.08c1.47.9,1.35,2.45-.44,3.47l-19,11a6.47,6.47,0,0,1-3,.83A6.65,6.65,0,0,1,768.62,949.22Z"/><path class="cls-7" d="M486.4,753l-19.19-11.08c-1.54-.9-1.33-2.44.44-3.47l19.09-11a6.74,6.74,0,0,1,6-.25l19.19,11.08c1.54.89,1.35,2.44-.44,3.47l-19,11a6.69,6.69,0,0,1-3,.85A6.77,6.77,0,0,1,486.4,753Z"/><path class="cls-7" d="M456.93,735.93l-19.19-11.07c-1.54-.9-1.33-2.45.44-3.48l19-11a6.59,6.59,0,0,1,6-.25l19.18,11.07c1.54.89,1.35,2.45-.44,3.48l-19,11a6.82,6.82,0,0,1-3,.85A6.75,6.75,0,0,1,456.93,735.93Z"/><path class="cls-7" d="M427.43,718.93l-19.18-11.09c-1.54-.87-1.35-2.43.44-3.45l19-11a6.7,6.7,0,0,1,6-.25l19.19,11.09c1.47.88,1.33,2.43-.44,3.46l-19,11a6.68,6.68,0,0,1-6,.25Z"/><path class="cls-7" d="M398,701.89l-19.2-11c-1.54-.9-1.35-2.45.44-3.46l19-11a7,7,0,0,1,3-.84,6.75,6.75,0,0,1,3,.6l19.19,11.06c1.54.9,1.34,2.46-.44,3.48l-19,11a6.59,6.59,0,0,1-6,.2Z"/><path class="cls-7" d="M428.28,684.39l-19.19-11.06c-1.54-.9-1.35-2.45.43-3.48l6.29-3.63a6.76,6.76,0,0,1,6-.25L441,677.05c1.55.88,1.34,2.44-.44,3.47l-6.28,3.63a6.87,6.87,0,0,1-3,.84A6.6,6.6,0,0,1,428.28,684.39Z"/><path class="cls-7" d="M466.75,706.62l-19.18-11.08c-1.46-.89-1.35-2.45.43-3.48l6.28-3.62a6.87,6.87,0,0,1,3-.84,6.73,6.73,0,0,1,3,.59l19.18,11.09c1.54.87,1.35,2.43-.42,3.46l-6.29,3.62a6.62,6.62,0,0,1-3,.85A6.73,6.73,0,0,1,466.75,706.62Z"/><path class="cls-7" d="M496.1,723.55l-19.19-11.09c-1.46-.88-1.33-2.43.44-3.46l6.29-3.63a6.87,6.87,0,0,1,3-.84,6.6,6.6,0,0,1,3,.59l19.19,11.07c1.54.9,1.35,2.45-.43,3.48l-6.28,3.62a6.68,6.68,0,0,1-3,.84A6.6,6.6,0,0,1,496.1,723.55Z"/><path class="cls-7" d="M525.47,740.49l-19.19-11.06c-1.47-.9-1.35-2.45.43-3.48l6.29-3.63a6.76,6.76,0,0,1,3-.83,6.59,6.59,0,0,1,3,.58l19.18,11.08c1.54.88,1.34,2.44-.44,3.47l-6.28,3.62a6.6,6.6,0,0,1-3,.84A6.45,6.45,0,0,1,525.47,740.49Z"/><path class="cls-7" d="M554.81,757.45l-19.18-11.08c-1.47-.88-1.35-2.43.42-3.46l6.29-3.63a6.6,6.6,0,0,1,3-.84,6.74,6.74,0,0,1,3,.59l19.17,11.07c1.55.89,1.36,2.45-.42,3.48l-6.28,3.62a6.77,6.77,0,0,1-3,.84A6.6,6.6,0,0,1,554.81,757.45Z"/><path class="cls-7" d="M718.69,852.06,699.5,841c-1.47-.9-1.35-2.43.43-3.47l6.28-3.64a6.94,6.94,0,0,1,3-.83,6.74,6.74,0,0,1,3,.59l19.19,11.08c1.54.89,1.34,2.44-.44,3.46l-6.28,3.63a6.64,6.64,0,0,1-3,.84A6.74,6.74,0,0,1,718.69,852.06Z"/><path class="cls-7" d="M748.05,869l-19.18-11.09c-1.47-.87-1.36-2.43.42-3.45l6.31-3.6a6.68,6.68,0,0,1,6-.25l19.19,11.08c1.53.88,1.34,2.44-.43,3.47l-6.29,3.62a6.6,6.6,0,0,1-6,.22Z"/><path class="cls-7" d="M777.4,886l-19.18-11.08c-1.47-.89-1.33-2.43.44-3.46l6.28-3.63a6.66,6.66,0,0,1,6-.25l19.19,11.07c1.54.9,1.35,2.44-.43,3.47l-6.28,3.64a6.74,6.74,0,0,1-3,.84A6.8,6.8,0,0,1,777.4,886Z"/><path class="cls-7" d="M806.75,902.93l-19.18-11.07c-1.47-.9-1.35-2.46.44-3.48l6.28-3.63a6.72,6.72,0,0,1,6-.24l19.19,11.08c1.53.88,1.34,2.43-.45,3.46l-6.28,3.63a6.6,6.6,0,0,1-3,.84A6.77,6.77,0,0,1,806.75,902.93Z"/><path class="cls-7" d="M516,770.13,496.84,759c-1.54-.88-1.35-2.44.43-3.47l19-11a6.66,6.66,0,0,1,6-.25l19.19,11.08c1.54.88,1.35,2.44-.43,3.47l-19,11a6.61,6.61,0,0,1-3,.84A6.79,6.79,0,0,1,516,770.13Z"/><path class="cls-7" d="M545.65,787.16l-19.19-11.08c-1.47-.88-1.35-2.44.43-3.46l19-11a6.6,6.6,0,0,1,3-.84,6.72,6.72,0,0,1,3,.58l19.19,11.09c1.53.9,1.34,2.43-.43,3.46l-19,11a6.6,6.6,0,0,1-3,.84A6.73,6.73,0,0,1,545.65,787.16Z"/><path class="cls-7" d="M575.28,804.27,556.1,793.2c-1.47-.89-1.35-2.44.42-3.48l19.08-11a6.64,6.64,0,0,1,3-.84,6.73,6.73,0,0,1,3,.59l19.19,11.07c1.54.89,1.35,2.45-.43,3.46l-19,11a6.51,6.51,0,0,1-3,.86A6.65,6.65,0,0,1,575.28,804.27Z"/><path class="cls-7" d="M605,821.36,585.77,810.3c-1.54-.9-1.35-2.46.43-3.48l19-11a6.64,6.64,0,0,1,3-.84,6.74,6.74,0,0,1,3,.59l19.17,11.07c1.54.9,1.35,2.45-.43,3.48l-19,11a6.91,6.91,0,0,1-3,.84A6.75,6.75,0,0,1,605,821.36Z"/><path class="cls-7" d="M634.52,838.47l-19.18-11.08c-1.54-.9-1.35-2.46.43-3.48l19-11a6.87,6.87,0,0,1,3-.84,6.65,6.65,0,0,1,3,.6L660,823.76c1.47.9,1.33,2.45-.44,3.48l-19,11a6.64,6.64,0,0,1-6,.26Z"/><path class="cls-7" d="M664.14,855.58,645,844.5c-1.47-.89-1.35-2.44.44-3.46l19-11a6.76,6.76,0,0,1,6-.25l19.19,11.08c1.54.88,1.33,2.44-.44,3.47l-19.08,11a6.86,6.86,0,0,1-2.94.82A6.75,6.75,0,0,1,664.14,855.58Z"/><path class="cls-7" d="M693.78,872.68,674.59,861.6c-1.47-.88-1.33-2.44.44-3.47l19-11a6.68,6.68,0,0,1,6-.25L719.23,858c1.47.89,1.35,2.44-.44,3.47l-19,11a6.8,6.8,0,0,1-3,.83A6.59,6.59,0,0,1,693.78,872.68Z"/><path class="cls-7" d="M723.4,889.78l-19.19-11c-1.47-.88-1.33-2.43.44-3.46l19.09-11a6.74,6.74,0,0,1,6-.23l19.09,11c1.54.9,1.34,2.44-.43,3.47l-19.09,11a6.76,6.76,0,0,1-2.93.81A6.66,6.66,0,0,1,723.4,889.78Z"/><path class="cls-7" d="M753,906.88l-19.17-11.07c-1.47-.89-1.36-2.45.42-3.48l19-11a6.68,6.68,0,0,1,6-.25l19.18,11.06c1.47.9,1.35,2.46-.42,3.47l-18.9,11a6.6,6.6,0,0,1-3,.84A6.75,6.75,0,0,1,753,906.88Z"/><path class="cls-7" d="M346.61,772.17l-56.49-32.63c-1.54-.88-1.35-2.44.43-3.47l19.08-11a6.73,6.73,0,0,1,3-.84,6.6,6.6,0,0,1,3,.59l56.51,32.62c1.54.88,1.35,2.43-.43,3.46l-19,11a6.78,6.78,0,0,1-3,.85A6.65,6.65,0,0,1,346.61,772.17Z"/><path class="cls-7" d="M710.66,982.3l-56.5-32.62c-1.54-.89-1.35-2.45.42-3.46l19.09-11a6.87,6.87,0,0,1,3-.84,6.6,6.6,0,0,1,3,.6l56.5,32.62c1.54.89,1.35,2.43-.42,3.46l-19.08,11a7,7,0,0,1-3,.84A6.86,6.86,0,0,1,710.66,982.3Z"/><path class="cls-7" d="M592.13,951.69,572.94,940.6c-1.54-.88-1.35-2.44.42-3.47L596,924.07a6.6,6.6,0,0,1,3-.84,6.8,6.8,0,0,1,3,.59l19.18,11.07c1.47.9,1.35,2.43-.43,3.46l-22.65,13.08a6.7,6.7,0,0,1-6,.26Z"/><path class="cls-7" d="M377,827.47l-30.68-17.7c-1.54-.89-1.35-2.44.44-3.47l22.64-13.07a6.61,6.61,0,0,1,6-.24l30.68,17.71c1.54.88,1.35,2.43-.42,3.46L383,827.24a6.8,6.8,0,0,1-3,.83A6.87,6.87,0,0,1,377,827.47Z"/><path class="cls-7" d="M563.57,935.19l-30.68-17.7c-1.54-.9-1.33-2.45.44-3.48L556,900.94a6.74,6.74,0,0,1,3-.84,6.64,6.64,0,0,1,3,.59l30.68,17.71c1.54.89,1.33,2.44-.44,3.48l-22.64,13.06a6.61,6.61,0,0,1-3,.84A6.8,6.8,0,0,1,563.57,935.19Z"/><path class="cls-7" d="M419.73,852.14l-30.68-17.72c-1.54-.9-1.35-2.44.42-3.47l22.66-13.07a6.66,6.66,0,0,1,6-.25l30.68,17.71c1.54.89,1.35,2.45-.43,3.47l-22.65,13.08a6.87,6.87,0,0,1-3,.84A6.73,6.73,0,0,1,419.73,852.14Z"/><path class="cls-7" d="M418.34,817.75l133.39,77a1.88,1.88,0,0,1,.9.67,1.85,1.85,0,0,1,.33,1.07,1.82,1.82,0,0,1-.33,1.06,1.88,1.88,0,0,1-.9.67l-23.1,13.33a6.67,6.67,0,0,1-6,0l-133.39-77Z"/><path class="cls-7" d="M674.93,982.68,696.3,995c1.26.73,1.1,2-.35,2.84l-9.26,5.34a5.54,5.54,0,0,1-2.45.7,5.66,5.66,0,0,1-2.49-.49L660.4,991.07c-1.27-.72-1.12-2,.35-2.83l9.26-5.36a5.35,5.35,0,0,1,2.43-.68A5.46,5.46,0,0,1,674.93,982.68Z"/><path class="cls-7" d="M645.05,965.45l21.37,12.33c1.26.73,1.1,2-.36,2.85l-9.26,5.29a5.47,5.47,0,0,1-2.44.7,5.34,5.34,0,0,1-2.49-.49L630.51,973.8c-1.26-.74-1.12-2,.35-2.85l9.27-5.34a5.42,5.42,0,0,1,4.92-.16Z"/><path class="cls-7" d="M615.43,948.33l21.38,12.33c1.26.74,1.1,2-.35,2.85l-9.27,5.35a5.45,5.45,0,0,1-4.93.2L600.9,956.72c-1.26-.72-1.11-2,.36-2.83l9.26-5.37a5.43,5.43,0,0,1,2.44-.67A5.38,5.38,0,0,1,615.43,948.33Z"/><path class="cls-7" d="M661.41,956l21.35,12.32c1.27.72,1.12,2-.35,2.84l-9.27,5.35a5.62,5.62,0,0,1-2.43.69,5.69,5.69,0,0,1-2.48-.48l-21.38-12.35c-1.26-.71-1.1-2,.36-2.83l9.26-5.36a5.51,5.51,0,0,1,2.45-.67A5.44,5.44,0,0,1,661.41,956Z"/></g><path class="cls-5" d="M276.63,769.52,257.44,758.4c-1.54-.89-1.35-2.45.42-3.47l22.68-13a6.64,6.64,0,0,1,3-.84,6.72,6.72,0,0,1,3,.58l19.18,11.09c1.55.9,1.36,2.43-.44,3.46l-22.63,13.08a6.83,6.83,0,0,1-3,.85A6.62,6.62,0,0,1,276.63,769.52Z"/><path class="cls-5" d="M306.25,786.63l-19.19-11.08c-1.54-.88-1.35-2.44.43-3.46L310.14,759a6.6,6.6,0,0,1,3-.84,6.73,6.73,0,0,1,3,.59l19.19,11.07c1.54.89,1.35,2.45-.43,3.46l-22.65,13.08a6.58,6.58,0,0,1-6,.25Z"/><path class="cls-5" d="M335.87,803.73l-19.19-11.08c-1.54-.89-1.35-2.45.43-3.48l22.65-13.06a6.6,6.6,0,0,1,3-.84,6.73,6.73,0,0,1,3,.59L365,786.93c1.54.9,1.35,2.46-.43,3.48l-22.65,13.06a6.62,6.62,0,0,1-3,.85A6.73,6.73,0,0,1,335.87,803.73Z"/><path class="cls-5" d="M376.85,789.6l-19.19-11.08c-1.47-.88-1.35-2.44.44-3.46l19-11a6.66,6.66,0,0,1,6-.24l19.19,11.06c1.54.9,1.34,2.44-.44,3.47l-19,11a6.72,6.72,0,0,1-3,.83A6.57,6.57,0,0,1,376.85,789.6Z"/><path class="cls-5" d="M406.46,806.7l-19.18-11.07c-1.47-.89-1.34-2.45.44-3.48l19.07-11a6.57,6.57,0,0,1,3-.84,6.47,6.47,0,0,1,3,.59L432,792c1.54.9,1.35,2.45-.44,3.48l-19,11a6.74,6.74,0,0,1-6.08.25Z"/><path class="cls-5" d="M436.14,823.82l-19.24-11.1c-1.47-.89-1.34-2.45.44-3.47l19-11a6.7,6.7,0,0,1,6-.26l19.19,11.08c1.54.89,1.35,2.45-.44,3.48l-19,11a6.74,6.74,0,0,1-2.94.84A6.66,6.66,0,0,1,436.14,823.82Z"/><path class="cls-5" d="M465.71,840.91l-19.17-11.07c-1.54-.9-1.35-2.44.43-3.47l19-11a6.62,6.62,0,0,1,3-.85,6.74,6.74,0,0,1,3,.6l19.19,11.08c1.47.88,1.35,2.44-.43,3.47l-19,10.9a6.6,6.6,0,0,1-3,.87A6.53,6.53,0,0,1,465.71,840.91Z"/><path class="cls-5" d="M495.35,858,476.16,847c-1.54-.87-1.35-2.43.43-3.45l19-11a6.87,6.87,0,0,1,3-.84,6.73,6.73,0,0,1,3,.59l19.19,11.09c1.47.88,1.35,2.43-.43,3.46l-19,11a6.87,6.87,0,0,1-3,.84A6.73,6.73,0,0,1,495.35,858Z"/><path class="cls-5" d="M525,875.11l-19.18-11c-1.54-.88-1.35-2.43.42-3.46l19-11a6.72,6.72,0,0,1,3-.83,6.63,6.63,0,0,1,3,.58l19.18,11.08c1.54.88,1.35,2.44-.42,3.47l-19,11a6.63,6.63,0,0,1-6,.2Z"/><path class="cls-5" d="M554.59,892.24l-19.18-11.08c-1.54-.88-1.35-2.44.42-3.46l19-11a6.68,6.68,0,0,1,3-.84,6.61,6.61,0,0,1,3,.59L580,877.55c1.53.89,1.34,2.43-.43,3.46L560.5,892a6.68,6.68,0,0,1-2.93.82A6.53,6.53,0,0,1,554.59,892.24Z"/><path class="cls-5" d="M584.22,909.33,565,898.27c-1.54-.9-1.35-2.46.43-3.48l19.08-11a6.61,6.61,0,0,1,3-.84,6.77,6.77,0,0,1,3,.59l19.19,11.07c1.46.9,1.33,2.45-.45,3.48l-19.08,11a6.61,6.61,0,0,1-6,.24Z"/><path class="cls-5" d="M613.85,926.43l-19.16-11.07c-1.54-.9-1.35-2.45.44-3.48l19-11a6.87,6.87,0,0,1,3-.84,6.77,6.77,0,0,1,3,.59l19.18,11.07c1.55.9,1.34,2.45-.44,3.48l-19.08,11a6.66,6.66,0,0,1-6,.25Z"/><path class="cls-5" d="M643.47,943.55l-19.19-11.07c-1.47-.9-1.34-2.44.44-3.47l19-11a6.49,6.49,0,0,1,3-.85,6.73,6.73,0,0,1,3,.59l19.19,11.09c1.47.87,1.35,2.43-.44,3.46l-19,11a6.66,6.66,0,0,1-6,.18Z"/><path class="cls-5" d="M420.5,781.5l-19.19-11.07c-1.46-.9-1.35-2.45.43-3.48l19-11a6.62,6.62,0,0,1,3-.85,6.71,6.71,0,0,1,3,.6l19.19,11.07c1.54.89,1.35,2.45-.43,3.48l-19,11a6.58,6.58,0,0,1-6,.25Z"/><path class="cls-5" d="M390.43,764.14l-19.18-11.08c-1.54-.88-1.35-2.44.43-3.46l19-11a6.87,6.87,0,0,1,3-.84,6.74,6.74,0,0,1,3,.6l19.19,11.08c1.54.88,1.35,2.43-.43,3.46l-18.89,11a6.7,6.7,0,0,1-3,.86A6.62,6.62,0,0,1,390.43,764.14Z"/><path class="cls-5" d="M360.31,746.75,319,722.9c-1.54-.88-1.35-2.44.44-3.47l19-10.95a6.73,6.73,0,0,1,3-.83,6.65,6.65,0,0,1,3,.58l41.31,23.86c1.54.89,1.35,2.45-.43,3.48l-19,11a6.62,6.62,0,0,1-6,.22Z"/><path class="cls-5" d="M381.36,725.61l-33.53-19.36c-1.47-.9-1.35-2.44.43-3.47l19-11a6.59,6.59,0,0,1,3-.83,6.73,6.73,0,0,1,3,.59l33.52,19.35c1.54.89,1.35,2.45-.43,3.47l-19.08,11a6.74,6.74,0,0,1-5.92.25Z"/><path class="cls-5" d="M450.13,798.61l-19.19-11.07c-1.54-.9-1.35-2.44.42-3.47l19-11a6.68,6.68,0,0,1,3-.84,6.61,6.61,0,0,1,3,.59l19.17,11.09c1.47.87,1.36,2.43-.42,3.45l-19,11a6.63,6.63,0,0,1-3,.86A6.73,6.73,0,0,1,450.13,798.61Z"/><path class="cls-5" d="M479.75,815.72l-19.19-11.08c-1.54-.88-1.35-2.44.43-3.47l19-11a6.61,6.61,0,0,1,3-.84,6.72,6.72,0,0,1,3,.58l19.13,11c1.54.88,1.35,2.44-.42,3.46l-19,11a6.67,6.67,0,0,1-2.95.86A6.77,6.77,0,0,1,479.75,815.72Z"/><path class="cls-5" d="M509.37,832.82l-19.19-11.09c-1.54-.88-1.35-2.43.44-3.47l19-11a6.73,6.73,0,0,1,3-.83,6.8,6.8,0,0,1,3,.59l19.18,11.08c1.47.88,1.34,2.44-.44,3.46l-19,11a6.61,6.61,0,0,1-3,.85A6.79,6.79,0,0,1,509.37,832.82Z"/><path class="cls-5" d="M539,849.94l-19.17-11.09c-1.55-.88-1.34-2.43.44-3.46l19-10.92a6.72,6.72,0,0,1,6-.26l19.18,11.08c1.54.89,1.34,2.43-.44,3.46l-19,11a6.54,6.54,0,0,1-3,.82A6.61,6.61,0,0,1,539,849.94Z"/><path class="cls-5" d="M568.62,867,549.43,856c-1.47-.89-1.33-2.45.44-3.48l19-11a6.72,6.72,0,0,1,6-.26l19.18,11.09c1.54.89,1.35,2.45-.44,3.48l-19,11a6.66,6.66,0,0,1-6,.24Z"/><path class="cls-5" d="M598.24,884.14l-19.18-11.07c-1.54-.9-1.35-2.45.43-3.48l19.08-11a6.62,6.62,0,0,1,6-.26l19.19,11.08c1.47.88,1.35,2.44-.42,3.47l-19.08,11a6.66,6.66,0,0,1-6,.26Z"/><path class="cls-5" d="M627.87,901.23l-19.18-11.07c-1.55-.9-1.36-2.44.42-3.47l19-11a6.61,6.61,0,0,1,6-.24l19.19,11.08c1.47.88,1.35,2.44-.43,3.46l-19,11a6.68,6.68,0,0,1-3,.84A6.6,6.6,0,0,1,627.87,901.23Z"/><path class="cls-5" d="M657.49,918.41l-19.18-11.08c-1.55-.88-1.36-2.44.42-3.47l19.08-11a6.72,6.72,0,0,1,6-.24l19.11,11.09c1.47.88,1.35,2.44-.42,3.47l-19.09,11a6.68,6.68,0,0,1-5.93.23Z"/><path class="cls-5" d="M687.17,935.45,668,924.37c-1.46-.89-1.35-2.44.43-3.47l19-11a6.73,6.73,0,0,1,3-.83,6.59,6.59,0,0,1,3,.58l19.18,11.08c1.54.89,1.35,2.44-.43,3.47l-19.09,11a6.66,6.66,0,0,1-5.92.25Z"/><path class="cls-5" d="M739.79,965.84l-41.87-24.15c-1.54-.9-1.35-2.45.44-3.47l19-11a6.61,6.61,0,0,1,3-.84,6.8,6.8,0,0,1,3,.59l41.85,24.16c1.54.9,1.35,2.45-.43,3.48l-19,11a6.71,6.71,0,0,1-3,.85A6.59,6.59,0,0,1,739.79,965.84Z"/><path class="cls-5" d="M797.46,932.56l-35.33-20.4c-1.55-.89-1.35-2.44.42-3.47l19-11a6.68,6.68,0,0,1,6-.25l35.32,20.41c1.47.88,1.35,2.43-.42,3.46l-19,11a6.87,6.87,0,0,1-3,.84A6.73,6.73,0,0,1,797.46,932.56Z"/><path class="cls-5" d="M502,795.26l-19.19-11.07c-1.54-.89-1.35-2.44.43-3.46l19-11a6.68,6.68,0,0,1,3-.84,6.49,6.49,0,0,1,3,.59l19.19,11.08c1.47.88,1.33,2.43-.44,3.46L508.09,795.1a6.81,6.81,0,0,1-3,.81A6.72,6.72,0,0,1,502,795.26Z"/><path class="cls-5" d="M471.64,777.73l-19.18-11.08c-1.55-.89-1.35-2.45.42-3.48l19.09-11a6.57,6.57,0,0,1,3-.84,6.73,6.73,0,0,1,3,.59L497.15,763c1.55.89,1.36,2.45-.42,3.48l-19.08,11a6.72,6.72,0,0,1-6,.26Z"/><path class="cls-5" d="M441.27,760.19l-19.19-11.07c-1.47-.89-1.34-2.45.44-3.48l19-11a6.6,6.6,0,0,1,3-.84,6.49,6.49,0,0,1,3,.59l19.18,11.07c1.54.89,1.35,2.44-.44,3.48l-19,11a6.7,6.7,0,0,1-6,.25Z"/><path class="cls-5" d="M410.92,742.69l-19.18-11.08c-1.54-.89-1.35-2.45.42-3.48l19.09-11a6.68,6.68,0,0,1,6-.25L436.45,728c1.47.9,1.34,2.44-.44,3.47l-19.08,11a6.62,6.62,0,0,1-3,.85A6.74,6.74,0,0,1,410.92,742.69Z"/><path class="cls-5" d="M531.57,812.36l-19.09-11.08c-1.54-.88-1.35-2.44.44-3.47l19-11a6.78,6.78,0,0,1,6-.25l19.18,11.08c1.55.89,1.34,2.44-.44,3.47l-19,11a6.67,6.67,0,0,1-3,.86A6.79,6.79,0,0,1,531.57,812.36Z"/><path class="cls-5" d="M561.24,829.47l-19.18-11.09c-1.47-.88-1.34-2.43.44-3.46l19-11a6.73,6.73,0,0,1,3-.84,6.6,6.6,0,0,1,3,.59l19.19,11.08c1.54.9,1.35,2.43-.44,3.46l-19,11a6.74,6.74,0,0,1-3,.85A6.66,6.66,0,0,1,561.24,829.47Z"/><path class="cls-5" d="M590.87,846.59,571.7,835.51c-1.47-.89-1.35-2.44.42-3.47l19-11a6.83,6.83,0,0,1,3-.84,6.74,6.74,0,0,1,3,.6l19.18,11.06c1.47.9,1.36,2.44-.42,3.47l-19.08,11a6.81,6.81,0,0,1-3,.83A6.73,6.73,0,0,1,590.87,846.59Z"/><path class="cls-5" d="M620.49,863.68l-19.17-11.07c-1.47-.89-1.35-2.45.43-3.48l19-11a6.66,6.66,0,0,1,6-.25L645.94,849c1.55.89,1.36,2.45-.42,3.48l-19.08,11a6.81,6.81,0,0,1-3,.83A6.73,6.73,0,0,1,620.49,863.68Z"/><path class="cls-5" d="M650.13,880.77,631,869.71c-1.55-.9-1.36-2.46.42-3.48l19.08-11a6.64,6.64,0,0,1,3-.84,6.74,6.74,0,0,1,3,.59l19.18,11.07c1.47.9,1.36,2.45-.42,3.48l-19,11a6.75,6.75,0,0,1-3,.86A6.63,6.63,0,0,1,650.13,880.77Z"/><path class="cls-5" d="M679.82,897.86l-19.18-11.07c-1.47-.89-1.36-2.43.42-3.46l19.08-11a6.81,6.81,0,0,1,3-.84,6.74,6.74,0,0,1,3,.59l19,11.08c1.55.88,1.36,2.44-.42,3.46l-19.08,11a6.7,6.7,0,0,1-5.86.23Z"/><path class="cls-5" d="M709.38,915l-19.19-11.08c-1.47-.88-1.35-2.44.42-3.46l19-11a6.81,6.81,0,0,1,3-.84,6.74,6.74,0,0,1,3,.59l19.17,11.08c1.47.88,1.36,2.44-.42,3.47l-19,11a6.56,6.56,0,0,1-3,.83A6.66,6.66,0,0,1,709.38,915Z"/><path class="cls-5" d="M739,932.09,719.81,921c-1.47-.89-1.35-2.44.44-3.47l19-11a6.7,6.7,0,0,1,6-.25l19.18,11.08c1.55.9,1.35,2.44-.43,3.47l-19.09,11a6.66,6.66,0,0,1-5.92.25Z"/><path class="cls-5" d="M768.62,949.22l-19.18-11.06c-1.47-.9-1.34-2.45.44-3.48l19-11a6.6,6.6,0,0,1,3-.84,6.7,6.7,0,0,1,3,.59l19.19,11.08c1.47.9,1.35,2.45-.44,3.47l-19,11a6.67,6.67,0,0,1-6,.23Z"/><path class="cls-5" d="M486.4,753,467.21,741.9c-1.54-.9-1.33-2.45.44-3.47l19.09-11a6.66,6.66,0,0,1,6-.25l19.19,11.08c1.54.89,1.35,2.44-.44,3.47l-19,11a6.76,6.76,0,0,1-6.09.25Z"/><path class="cls-5" d="M456.93,735.93l-19.19-11.07c-1.54-.9-1.33-2.45.44-3.48l19-11a6.59,6.59,0,0,1,6-.25l19.18,11.07c1.54.89,1.35,2.45-.44,3.48l-19,11a6.82,6.82,0,0,1-3,.85A6.75,6.75,0,0,1,456.93,735.93Z"/><path class="cls-5" d="M427.45,718.93l-19.19-11.09c-1.54-.87-1.35-2.43.44-3.45l19-11a6.7,6.7,0,0,1,6-.25l19.18,11.09c1.47.88,1.34,2.43-.44,3.46l-19,11a6.66,6.66,0,0,1-6,.25Z"/><path class="cls-5" d="M398,701.89l-19.2-11c-1.54-.9-1.35-2.45.44-3.46l19-11a7,7,0,0,1,3-.84,6.75,6.75,0,0,1,3,.6l19.19,11.06c1.54.9,1.34,2.46-.44,3.48l-19,11a6.59,6.59,0,0,1-6,.2Z"/><path class="cls-5" d="M428.28,684.39l-19.19-11.06c-1.54-.9-1.35-2.45.43-3.48l6.29-3.63a6.76,6.76,0,0,1,6-.25L441,677.05c1.55.88,1.34,2.44-.44,3.47l-6.28,3.63a6.87,6.87,0,0,1-3,.84A6.6,6.6,0,0,1,428.28,684.39Z"/><path class="cls-5" d="M466.75,706.62l-19.18-11.08c-1.46-.89-1.35-2.45.43-3.48l6.28-3.62a6.87,6.87,0,0,1,3-.84,6.73,6.73,0,0,1,3,.59l19.18,11.09c1.54.87,1.35,2.43-.42,3.46l-6.29,3.62a6.62,6.62,0,0,1-3,.85A6.73,6.73,0,0,1,466.75,706.62Z"/><path class="cls-5" d="M496.1,723.58l-19.19-11.09c-1.46-.88-1.33-2.44.44-3.47l6.29-3.62a6.66,6.66,0,0,1,6-.25l19.19,11.07c1.54.9,1.35,2.45-.43,3.48l-6.28,3.62a6.74,6.74,0,0,1-6,.26Z"/><path class="cls-5" d="M525.47,740.49l-19.19-11.06c-1.47-.9-1.35-2.45.43-3.48l6.29-3.63a6.76,6.76,0,0,1,3-.83,6.59,6.59,0,0,1,3,.58l19.18,11.08c1.54.88,1.34,2.44-.44,3.47l-6.28,3.62a6.6,6.6,0,0,1-3,.84A6.45,6.45,0,0,1,525.47,740.49Z"/><path class="cls-5" d="M554.81,757.46l-19.18-11.09c-1.47-.88-1.35-2.43.42-3.46l6.29-3.63a6.6,6.6,0,0,1,3-.84,6.74,6.74,0,0,1,3,.59l19.17,11.07c1.55.89,1.36,2.45-.42,3.48l-6.28,3.62a6.64,6.64,0,0,1-3,.84A6.72,6.72,0,0,1,554.81,757.46Z"/><path class="cls-5" d="M718.69,852.06,699.5,841c-1.47-.9-1.35-2.43.43-3.47l6.28-3.64a6.94,6.94,0,0,1,3-.83,6.74,6.74,0,0,1,3,.59l19.19,11.08c1.54.89,1.34,2.44-.44,3.46l-6.28,3.63a6.64,6.64,0,0,1-3,.84A6.74,6.74,0,0,1,718.69,852.06Z"/><path class="cls-5" d="M748.05,869l-19.18-11.09c-1.47-.87-1.36-2.43.42-3.45l6.31-3.6a6.68,6.68,0,0,1,6-.25l19.19,11.08c1.53.88,1.34,2.44-.43,3.47l-6.29,3.62a6.6,6.6,0,0,1-6,.22Z"/><path class="cls-5" d="M777.4,886l-19.18-11.08c-1.47-.89-1.33-2.43.44-3.46l6.28-3.63a6.66,6.66,0,0,1,6-.25l19.19,11.07c1.54.9,1.35,2.44-.43,3.47l-6.28,3.64a6.74,6.74,0,0,1-3,.84A6.8,6.8,0,0,1,777.4,886Z"/><path class="cls-5" d="M806.75,902.93l-19.18-11.07c-1.47-.9-1.35-2.46.44-3.48l6.28-3.63a6.72,6.72,0,0,1,6-.24l19.19,11.08c1.53.88,1.34,2.43-.45,3.46l-6.28,3.63a6.6,6.6,0,0,1-3,.84A6.77,6.77,0,0,1,806.75,902.93Z"/><path class="cls-5" d="M516,770.15l-19.17-11.08c-1.54-.89-1.35-2.44.43-3.47l19-11a6.6,6.6,0,0,1,3-.84,6.72,6.72,0,0,1,3,.58l19.19,11.09c1.54.88,1.35,2.44-.43,3.46l-19,11a6.61,6.61,0,0,1-3,.84A6.8,6.8,0,0,1,516,770.15Z"/><path class="cls-5" d="M545.65,787.16l-19.19-11.08c-1.47-.88-1.35-2.44.43-3.46l19-11a6.6,6.6,0,0,1,3-.84,6.72,6.72,0,0,1,3,.58l19.19,11.09c1.53.9,1.34,2.43-.43,3.46l-19,11a6.6,6.6,0,0,1-3,.84A6.73,6.73,0,0,1,545.65,787.16Z"/><path class="cls-5" d="M575.28,804.27,556.1,793.2c-1.47-.89-1.35-2.44.42-3.48l19.08-11a6.64,6.64,0,0,1,3-.84,6.73,6.73,0,0,1,3,.59l19.19,11.07c1.54.89,1.35,2.45-.43,3.46l-19,11a6.51,6.51,0,0,1-3,.86A6.65,6.65,0,0,1,575.28,804.27Z"/><path class="cls-5" d="M605,821.36,585.77,810.3c-1.54-.9-1.35-2.46.43-3.48l19-11a6.64,6.64,0,0,1,3-.84,6.74,6.74,0,0,1,3,.59l19.17,11.07c1.54.9,1.35,2.45-.43,3.48l-19,11a6.91,6.91,0,0,1-3,.84A6.75,6.75,0,0,1,605,821.36Z"/><path class="cls-5" d="M634.52,838.47l-19.18-11.08c-1.54-.9-1.35-2.46.43-3.48l19-11a6.87,6.87,0,0,1,3-.84,6.65,6.65,0,0,1,3,.6L660,823.76c1.47.9,1.33,2.45-.44,3.48l-19,11a6.64,6.64,0,0,1-6,.26Z"/><path class="cls-5" d="M664.14,855.58,645,844.5c-1.47-.89-1.35-2.44.44-3.46l19-11a6.76,6.76,0,0,1,6-.25l19.19,11.08c1.54.88,1.33,2.44-.44,3.47l-19.08,11a6.86,6.86,0,0,1-2.94.82A6.75,6.75,0,0,1,664.14,855.58Z"/><path class="cls-5" d="M693.78,872.68,674.59,861.6c-1.47-.88-1.33-2.44.44-3.47l19-11a6.68,6.68,0,0,1,6-.25L719.23,858c1.47.89,1.35,2.44-.44,3.47l-19,11a6.8,6.8,0,0,1-3,.83A6.59,6.59,0,0,1,693.78,872.68Z"/><path class="cls-5" d="M723.4,889.78l-19.19-11c-1.47-.88-1.33-2.43.44-3.46l19.09-11a6.74,6.74,0,0,1,6-.23l19.09,11c1.54.9,1.34,2.44-.43,3.47l-19.09,11a6.76,6.76,0,0,1-2.93.81A6.66,6.66,0,0,1,723.4,889.78Z"/><path class="cls-5" d="M753,906.91l-19.17-11.07c-1.46-.9-1.35-2.45.43-3.48l19-11a6.87,6.87,0,0,1,3-.84,6.74,6.74,0,0,1,3,.6l19.19,11.06c1.47.9,1.35,2.46-.43,3.47l-18.89,11a6.53,6.53,0,0,1-3,.85A6.75,6.75,0,0,1,753,906.91Z"/><path class="cls-5" d="M346.61,772.17l-56.49-32.63c-1.54-.88-1.35-2.44.43-3.47l19.08-11a6.73,6.73,0,0,1,3-.84,6.6,6.6,0,0,1,3,.59l56.51,32.62c1.54.88,1.35,2.43-.43,3.46l-19,11a6.78,6.78,0,0,1-3,.85A6.65,6.65,0,0,1,346.61,772.17Z"/><path class="cls-5" d="M710.66,982.3l-56.5-32.62c-1.54-.89-1.35-2.45.42-3.46l19.09-11a6.87,6.87,0,0,1,3-.84,6.6,6.6,0,0,1,3,.6l56.5,32.62c1.54.89,1.35,2.43-.42,3.46l-19.08,11a7,7,0,0,1-3,.84A6.86,6.86,0,0,1,710.66,982.3Z"/><path class="cls-5" d="M592.13,951.69,572.94,940.6c-1.54-.88-1.35-2.44.42-3.47L596,924.07a6.6,6.6,0,0,1,3-.84,6.8,6.8,0,0,1,3,.59l19.18,11.07c1.47.9,1.35,2.43-.43,3.46l-22.65,13.08a6.7,6.7,0,0,1-6,.26Z"/><path class="cls-5" d="M377,827.47l-30.68-17.7c-1.54-.89-1.35-2.44.44-3.47l22.64-13.07a6.61,6.61,0,0,1,6-.24l30.68,17.71c1.54.88,1.35,2.43-.42,3.46L383,827.24a6.8,6.8,0,0,1-3,.83A6.87,6.87,0,0,1,377,827.47Z"/><path class="cls-5" d="M563.57,935.19l-30.68-17.7c-1.54-.9-1.33-2.45.44-3.48L556,900.94a6.74,6.74,0,0,1,3-.84,6.64,6.64,0,0,1,3,.59l30.68,17.71c1.54.89,1.33,2.44-.44,3.48l-22.64,13.06a6.61,6.61,0,0,1-3,.84A6.8,6.8,0,0,1,563.57,935.19Z"/><path class="cls-5" d="M419.73,852.17l-30.68-17.72c-1.54-.9-1.35-2.44.42-3.47l22.66-13.07a6.57,6.57,0,0,1,3-.84,6.47,6.47,0,0,1,3,.59l30.68,17.71c1.54.88,1.35,2.44-.43,3.47l-22.65,13.07a6.7,6.7,0,0,1-6,.26Z"/><path class="cls-5" d="M418.34,817.75l133.39,77a1.88,1.88,0,0,1,.9.67,1.85,1.85,0,0,1,.33,1.07,1.82,1.82,0,0,1-.33,1.06,1.88,1.88,0,0,1-.9.67l-23.1,13.33a6.67,6.67,0,0,1-6,0l-133.39-77Z"/><path class="cls-5" d="M674.93,982.71l21.37,12.34c1.26.73,1.1,2-.35,2.84l-9.26,5.34a5.41,5.41,0,0,1-2.45.69,5.51,5.51,0,0,1-2.49-.48L660.4,991.09c-1.27-.72-1.12-2,.35-2.83L670,982.9a5.47,5.47,0,0,1,4.92-.19Z"/><path class="cls-5" d="M645.05,965.45l21.37,12.33c1.26.73,1.1,2-.36,2.85l-9.26,5.29a5.47,5.47,0,0,1-2.44.7,5.34,5.34,0,0,1-2.49-.49L630.51,973.8c-1.26-.74-1.12-2,.35-2.85l9.27-5.34a5.42,5.42,0,0,1,4.92-.16Z"/><path class="cls-5" d="M615.43,948.36l21.38,12.33c1.26.73,1.1,2-.35,2.85l-9.27,5.34a5.5,5.5,0,0,1-2.44.7,5.63,5.63,0,0,1-2.49-.49L600.9,956.75c-1.26-.72-1.11-2,.36-2.84l9.26-5.36a5.44,5.44,0,0,1,2.44-.68A5.52,5.52,0,0,1,615.43,948.36Z"/><path class="cls-5" d="M661.41,956l21.35,12.32c1.27.72,1.12,2-.35,2.84l-9.27,5.35a5.62,5.62,0,0,1-2.43.69,5.69,5.69,0,0,1-2.48-.48l-21.38-12.35c-1.26-.71-1.1-2,.36-2.83l9.26-5.36a5.51,5.51,0,0,1,2.45-.67A5.44,5.44,0,0,1,661.41,956Z"/><path class="cls-8" d="M974.88,921.33,409,594.62c-8.9-5.13-13.55-17.61-10.38-28l128-415.56c3.17-10.28,13-14.51,21.85-9.37l566,326.77c8.9,5.13,13.54,17.61,10.37,28L996.8,912C993.63,922.34,983.85,926.53,974.88,921.33Z"/><path class="cls-9" d="M969.62,906.85l-549-317.27c-8.51-4.91-13-16.89-9.92-26.76L533,165.6c3-9.87,12.39-13.87,20.92-9l549,317.21c8.51,4.92,13,16.9,9.92,26.76L990.54,897.85C987.5,907.76,978.13,911.77,969.62,906.85Z"/><path class="cls-10" d="M969.62,906.85l-549-317.27c-8.51-4.91-13-16.89-9.92-26.76L533,165.6c3-9.87,12.39-13.87,20.92-9l549,317.21c8.51,4.92,13,16.9,9.92,26.76L990.54,897.85C987.5,907.76,978.13,911.77,969.62,906.85Z"/><path d="M969.62,906.85l-549-317.27c-8.51-4.91-13-16.89-9.92-26.76L533,165.6c3-9.87,12.39-13.87,20.92-9l549,317.21c8.51,4.92,13,16.9,9.92,26.76L990.54,897.85C987.5,907.76,978.13,911.77,969.62,906.85Z"/><path class="cls-5" d="M421.23,1014.84a28.15,28.15,0,0,1-13.79-3.22l-148.91-86c-3.94-2.27-6.12-5.53-6.12-9.17,0-4.22,2.94-8.37,8.21-11.38l76.64-44.24c9.37-5.4,23.11-5.88,31.31-1.2L517.48,945.6c3.95,2.27,6.12,5.54,6.12,9.18,0,4.22-2.93,8.37-8.2,11.37l-76.65,44.26A35.76,35.76,0,0,1,421.23,1014.84ZM354.89,860.71a31.64,31.64,0,0,0-15.44,3.82l-76.64,44.24c-3.86,2.22-6.07,5-6.07,7.65s2.16,4.4,4,5.46L409.6,1008c6.75,3.89,19.08,3.34,27-1.22l76.64-44.29c3.86-2.23,6.06-5,6.06-7.66s-2.16-4.41-4-5.45l-148.9-86a23.52,23.52,0,0,0-11.55-2.6Z"/><path class="cls-11" d="M1133.24,630.57l-159-86.84a10.27,10.27,0,0,1-4.25-11.5l52.6-170.84c1.32-4.24,5.33-6,9-3.84l159,86.84a10.27,10.27,0,0,1,4.27,11.5l-52.6,170.83C1140.91,631,1136.89,632.68,1133.24,630.57Z"/><path class="cls-12" d="M1190.57,444.38l-159-86.85a5.9,5.9,0,0,0-6.54.22,6.3,6.3,0,0,1,3.36.87l159,86.84a10.3,10.3,0,0,1,4.26,11.5L1139,627.74a7,7,0,0,1-2.44,3.63,6.15,6.15,0,0,0,5.64-4.66l52.61-170.84a10.3,10.3,0,0,0-4.27-11.49Z"/><path class="cls-11" d="M1053.85,884.1l-159-86.85a10.28,10.28,0,0,1-4.26-11.49l52.61-170.84c1.31-4.24,5.33-6,9-3.85l159,86.85a10.26,10.26,0,0,1,4.27,11.49l-52.61,170.84C1061.53,884.49,1057.5,886.21,1053.85,884.1Z"/><path class="cls-13" d="M1111.18,697.63l-159-86.85a5.92,5.92,0,0,0-3.31-.88,5.86,5.86,0,0,0-3.23,1.1,6.27,6.27,0,0,1,3.35.87l159,86.84a10.3,10.3,0,0,1,4.26,11.5L1059.64,881a7,7,0,0,1-2.43,3.63,6.17,6.17,0,0,0,5.64-4.66l52.6-170.84a10.26,10.26,0,0,0-4.27-11.49Z"/><path class="cls-11" d="M824.84,474.08,382.21,216a11.87,11.87,0,0,1-4.92-13.21L438.07,5.47c1.47-4.89,6.15-6.88,10.38-4.4L891.06,259.12A11.86,11.86,0,0,1,896,272.33L835.22,469.64C833.71,474.52,829.05,476.52,824.84,474.08Z"/><path class="cls-14" d="M891.57,259.3,449,1.16a6.67,6.67,0,0,0-7.56.25,7.26,7.26,0,0,1,3.88,1L887.89,260.47a12,12,0,0,1,4.63,5.8,11.82,11.82,0,0,1,.29,7.41L832,471a8.89,8.89,0,0,1-.91,2,.94.94,0,0,0-.1.57.93.93,0,0,0,.77.77,1,1,0,0,0,.57-.1,7.93,7.93,0,0,0,3.36-4.52L896.5,272.51a11.9,11.9,0,0,0-4.93-13.21Z"/><g class="cls-15"><path class="cls-5" d="M633.45,296.42,567.9,259c-2-1.16-4.14-.56-4.73,1.33a5.17,5.17,0,0,0,2.63,5.52l65.58,37.45c2,1.16,4.15.56,4.73-1.34a5.16,5.16,0,0,0-2.66-5.58Z"/><path class="cls-5" d="M816.57,400.84l-108.63-62c-2-1.15-4.15-.56-4.73,1.33a5.23,5.23,0,0,0,.41,3.19,5.13,5.13,0,0,0,2.23,2.33l108.63,62c2,1.16,4.14.56,4.72-1.34a5.17,5.17,0,0,0-2.63-5.52Z"/><path class="cls-5" d="M686.26,326.51,655.85,309.2c-2-1.14-4.15-.55-4.72,1.34a5.15,5.15,0,0,0,.4,3.19,5.23,5.23,0,0,0,2.23,2.33l30.47,17.32c2,1.15,4.16.56,4.73-1.33a5.18,5.18,0,0,0-2.7-5.54Z"/><path class="cls-5" d="M570.33,333.06,549,321c-2-1.16-4.14-.55-4.71,1.34a5.17,5.17,0,0,0,2.63,5.52l21.33,12.11c2,1.16,4.15.56,4.72-1.34a5.09,5.09,0,0,0-.42-3.19A5.18,5.18,0,0,0,570.33,333.06Z"/><path class="cls-5" d="M662.63,385.8,587.42,343c-2-1.16-4.15-.56-4.73,1.34a5.09,5.09,0,0,0,.41,3.19,5.19,5.19,0,0,0,2.21,2.33l75.22,42.89c2,1.16,4.16.56,4.73-1.34a5.18,5.18,0,0,0-2.63-5.59Z"/><path class="cls-5" d="M703.69,409.11,682.37,397c-2-1.16-4.14-.56-4.71,1.34a5.16,5.16,0,0,0,.41,3.19,5.09,5.09,0,0,0,2.22,2.32L701.59,416c2,1.16,4.15.56,4.73-1.34a5.17,5.17,0,0,0-.42-3.19A5.24,5.24,0,0,0,703.69,409.11Z"/><path class="cls-5" d="M796,461.88,720.76,419c-2-1.16-4.14-.56-4.72,1.33a5.09,5.09,0,0,0,.41,3.19,5.14,5.14,0,0,0,2.21,2.33l75.22,42.9c2,1.16,4.15.55,4.73-1.34a5.17,5.17,0,0,0-2.63-5.52Z"/><path class="cls-5" d="M654.42,417.33,539.58,351.86c-2-1.16-4.14-.56-4.71,1.33a5.23,5.23,0,0,0,.41,3.19,5.11,5.11,0,0,0,2.22,2.33l114.82,65.47c2,1.16,4.15.56,4.73-1.32a5.19,5.19,0,0,0-2.63-5.53Z"/><path class="cls-5" d="M765.88,481l-86.29-49.21c-2-1.14-4.14-.55-4.71,1.34a5.13,5.13,0,0,0,2.63,5.52l86.27,49.2c2,1.16,4.15.56,4.73-1.33a5.2,5.2,0,0,0-2.63-5.52Z"/><path class="cls-5" d="M595.71,420.17l-65.62-37.38c-2-1.16-4.16-.57-4.73,1.32a5.19,5.19,0,0,0,2.63,5.54L593.56,427c2,1.16,4.14.58,4.72-1.32a5.17,5.17,0,0,0-2.57-5.53Z"/><path class="cls-5" d="M699.28,479.23l-81.11-46.29c-2-1.16-4.14-.56-4.72,1.33a5.2,5.2,0,0,0,2.63,5.52l81.18,46.3c2,1.16,4.15.56,4.73-1.34a5.16,5.16,0,0,0-2.71-5.52Z"/><path class="cls-5" d="M872.24,432.52l-30.41-17.34c-2-1.16-4.14-.56-4.71,1.34a5.15,5.15,0,0,0,.4,3.19,5.21,5.21,0,0,0,2.22,2.33l30.4,17.33c2,1.16,4.14.56,4.73-1.33a5.17,5.17,0,0,0-2.63-5.52Z"/><path class="cls-5" d="M941.63,472.16,895,445.56c-2-1.16-4.15-.56-4.72,1.34a5.23,5.23,0,0,0,.41,3.19,5.16,5.16,0,0,0,2.22,2.33L939.53,479c2,1.16,4.15.57,4.72-1.32a5.17,5.17,0,0,0-2.62-5.54Z"/><path class="cls-5" d="M866.62,465.68l121.93,69.59a5.14,5.14,0,0,1,2.63,5.51c-.59,1.9-2.7,2.5-4.73,1.34L864.61,472.6a5.16,5.16,0,0,1-2.22-2.33,5.08,5.08,0,0,1-.4-3.19C862.48,465.13,864.6,464.53,866.62,465.68Z"/><path class="cls-5" d="M828.41,482l121.84,69.52a5.16,5.16,0,0,1,2.22,2.33,5.23,5.23,0,0,1,.42,3.19c-.6,1.89-2.69,2.49-4.73,1.33L826.32,488.86a5.17,5.17,0,0,1-2.63-5.52C824.26,481.45,826.37,480.85,828.41,482Z"/><path class="cls-5" d="M626.16,328.56l108.63,62a5.11,5.11,0,0,1,2.22,2.33,5,5,0,0,1,.4,3.19c-.57,1.89-2.68,2.48-4.72,1.33l-108.62-62a5.15,5.15,0,0,1-2.64-5.52C622,328,624.14,327.4,626.16,328.56Z"/><path class="cls-5" d="M813.83,435.58l30.41,17.33a5.17,5.17,0,0,1,2.62,5.54c-.57,1.89-2.69,2.48-4.71,1.32l-30.4-17.34a5.16,5.16,0,0,1-2.65-5.52C809.69,435,811.81,434.43,813.83,435.58Z"/><path class="cls-5" d="M760.37,405.09l30.39,17.33a5.16,5.16,0,0,1,2.63,5.54c-.57,1.89-2.68,2.48-4.72,1.33L758.26,412a5.26,5.26,0,0,1-2.21-2.34,5.13,5.13,0,0,1-.41-3.2C756.15,404.53,758.33,403.94,760.37,405.09Z"/><path class="cls-5" d="M558.46,290l46.65,26.57a5.15,5.15,0,0,1,2.64,5.52c-.59,1.9-2.7,2.5-4.72,1.34l-46.66-26.57a5.17,5.17,0,0,1-2.62-5.54C554.32,289.4,556.43,288.81,558.46,290Z"/><path class="cls-5" d="M586.27,451.11l-65.56-37.39c-2-1.16-4.14-.56-4.72,1.34a5.18,5.18,0,0,0,2.62,5.52L584.19,458c2,1.15,4.14.55,4.72-1.34a5.14,5.14,0,0,0-2.64-5.52Z"/><path class="cls-5" d="M769.38,555.52l-108.63-62c-2-1.16-4.16-.57-4.73,1.32a5.19,5.19,0,0,0,2.63,5.54l108.62,62c2,1.16,4.15.56,4.73-1.34a5.09,5.09,0,0,0-.41-3.19A5.24,5.24,0,0,0,769.38,555.52Z"/><path class="cls-5" d="M639.08,481.23l-30.41-17.34c-2-1.15-4.15-.55-4.73,1.34a5.18,5.18,0,0,0,2.64,5.46L637,488c2,1.16,4.16.56,4.73-1.34a5.19,5.19,0,0,0-2.62-5.46Z"/><path class="cls-5" d="M523.15,487.76,501.83,475.6c-2-1.14-4.14-.55-4.71,1.34a5.19,5.19,0,0,0,.4,3.2,5.26,5.26,0,0,0,2.23,2.34l21.3,12.13c2,1.16,4.15.58,4.73-1.32a5.19,5.19,0,0,0-2.63-5.53Z"/><path class="cls-5" d="M615.46,540.49l-75.21-42.88c-2-1.15-4.14-.57-4.73,1.33a5.19,5.19,0,0,0,2.63,5.53l75.22,42.88c2,1.16,4.15.57,4.72-1.32a5.19,5.19,0,0,0-.4-3.2A5.25,5.25,0,0,0,615.46,540.49Z"/><path class="cls-5" d="M656.49,563.8l-21.31-12.16c-2-1.16-4.14-.55-4.71,1.34a5.13,5.13,0,0,0,2.63,5.52l21.3,12.15c2,1.16,4.15.56,4.73-1.33a5.23,5.23,0,0,0-.42-3.19A5.16,5.16,0,0,0,656.49,563.8Z"/><path class="cls-5" d="M748.81,616.53l-75.22-42.89c-2-1.15-4.14-.56-4.72,1.33a5.17,5.17,0,0,0,2.63,5.52l75.2,42.87c2,1.16,4.15.55,4.72-1.34a5.16,5.16,0,0,0-2.61-5.49Z"/><path class="cls-5" d="M607.24,572,492.4,506.49c-2-1.16-4.14-.56-4.71,1.33a5.15,5.15,0,0,0,2.63,5.52l114.82,65.49c2,1.14,4.14.56,4.73-1.34a5.09,5.09,0,0,0-.41-3.19A5.16,5.16,0,0,0,607.24,572Z"/><path class="cls-5" d="M796.39,679.88l-164-93.5c-2-1.16-4.15-.57-4.73,1.33a5.2,5.2,0,0,0,2.64,5.53l164,93.51c2,1.14,4.14.56,4.71-1.34a5.13,5.13,0,0,0-.41-3.2A5.23,5.23,0,0,0,796.39,679.88Z"/><path class="cls-5" d="M548.53,574.92,483,537.5c-2-1.16-4.15-.56-4.72,1.34a5.09,5.09,0,0,0,.41,3.19,5.19,5.19,0,0,0,2.21,2.33l65.58,37.39c2,1.16,4.14.55,4.71-1.34a5.17,5.17,0,0,0-2.63-5.49Z"/><path class="cls-5" d="M601.32,605l-30.4-17.34c-2-1.14-4.14-.56-4.71,1.34a5.14,5.14,0,0,0,2.62,5.52l30.41,17.33c2,1.16,4.13.58,4.72-1.32a5.16,5.16,0,0,0-2.64-5.53Z"/><path class="cls-5" d="M825.06,587.26l-30.42-17.34c-2-1.16-4.13-.56-4.7,1.34a5.08,5.08,0,0,0,.4,3.19,5.16,5.16,0,0,0,2.22,2.33L823,594.11c2,1.16,4.13.56,4.72-1.33a5.16,5.16,0,0,0-.41-3.19A5.21,5.21,0,0,0,825.06,587.26Z"/><path class="cls-5" d="M826.3,515.14l-30.4-17.33c-2-1.16-4.14-.57-4.71,1.32a5.13,5.13,0,0,0,2.63,5.53l30.39,17.41c2,1.16,4.15.56,4.73-1.33a5.17,5.17,0,0,0-2.64-5.6Z"/><path class="cls-5" d="M894.45,626.83l-46.66-26.61c-2-1.16-4.15-.56-4.72,1.34a5.11,5.11,0,0,0,2.63,5.51l46.65,26.62c2,1.16,4.14.56,4.73-1.34a5.09,5.09,0,0,0-.41-3.19A5.16,5.16,0,0,0,894.45,626.83Z"/><path class="cls-5" d="M819.44,620.41l121.84,69.52a5.18,5.18,0,0,1,2.65,5.52c-.59,1.9-2.7,2.5-4.73,1.34L817.36,627.27a5.17,5.17,0,0,1-2.63-5.52C815.31,619.83,817.42,619.24,819.44,620.41Z"/><path class="cls-5" d="M579,483.28l108.63,62a5.17,5.17,0,0,1,2.63,5.52c-.58,1.9-2.69,2.5-4.73,1.34l-108.63-62a5.19,5.19,0,0,1-2.63-5.54C574.84,482.71,577,482.12,579,483.28Z"/><path class="cls-5" d="M766.65,590.29l30.4,17.34a5.21,5.21,0,0,1,2.22,2.33,5.16,5.16,0,0,1,.41,3.19c-.58,1.89-2.69,2.5-4.72,1.34l-30.41-17.34a5.21,5.21,0,0,1-2.22-2.33,5.16,5.16,0,0,1-.41-3.19C762.51,589.74,764.62,589.13,766.65,590.29Z"/><path class="cls-5" d="M713.18,559.8l30.42,17.34a5.19,5.19,0,0,1,2.21,2.33,5.09,5.09,0,0,1,.41,3.19c-.58,1.89-2.7,2.5-4.73,1.34L711.1,566.66a5.13,5.13,0,0,1-2.63-5.52C709,559.25,711.15,558.64,713.18,559.8Z"/><path class="cls-5" d="M511.27,444.68,558,471.28a5.06,5.06,0,0,1,2.23,2.32,5.19,5.19,0,0,1,.4,3.2c-.57,1.89-2.69,2.49-4.71,1.33l-46.71-26.52a5.18,5.18,0,0,1-2.23-2.33,5.09,5.09,0,0,1-.41-3.19C507.13,444.12,509.25,443.52,511.27,444.68Z"/></g><path d="M486.73,192.67,475,186.05l-.83-35.83-5.15,4.7-7.28,23.63-9.5-5.37,21.86-71,9.5,5.36L476,132.48l19.27-18.39,11.85,6.68-22.39,20.74Z"/><path d="M519.63,201.9q-8.21,7.42-16.1,3t-9.71-17.56q-1.79-13.19,3.46-30.25t13.38-24.43q8.1-7.26,16-2.82t9.89,17.41q1.82,13.1-3.4,30.08T519.63,201.9ZM504,180.15q.34,7.23,4.26,9.44t8.06-2.48q4.13-4.81,7.32-15.2t2.71-17.45q-.45-7.17-4.37-9.38T514,147.45q-4,4.59-7.21,15Q503.54,173,504,180.15Z"/><path d="M549.32,144.57,566.05,154q5.93,3.33,7.55,11.88t-1.83,19.37q-3.39,11-9,15.57t-12,1L544.06,198,537,221.07l-9.53-5.39Zm-.71,38.64,5.31,3q5.55,3.14,8.39-6.06a15.17,15.17,0,0,0,.71-7.46,6.36,6.36,0,0,0-3.15-4.47L554.21,165Z"/><path d="M571.05,240.35,561.5,235l21.91-71.17,9.56,5.39Z"/><path d="M613.4,241l-4.93,20.48-9.56-5.41L603.2,239a20.81,20.81,0,0,0,.77-8.14,6,6,0,0,0-3.08-4.44l-5.83-3.29L587,249.37l-9.56-5.4,21.93-71.2,19.18,10.81q5.58,3.13,7,10.44t-1.42,16.41q-4,13.11-11.86,13.74Q616.2,229.59,613.4,241Zm-14-31.88,6.86,3.87a3.75,3.75,0,0,0,4.45-.13,10.27,10.27,0,0,0,3.17-5.31,13.89,13.89,0,0,0,.63-6.52,5.53,5.53,0,0,0-2.72-4.06l-7.37-4.15Z"/><path d="M648.74,284.29l-10.1-5.71,1.71-13.37-12.3-7-5.81,11.06-10-5.68,35.26-63.75,10.1,5.69Zm-9.53-47.23-4.63,8.78,7.74,4.37,1.35-10.64L646,223.38Z"/><path d="M680.13,242.4l11.57-17.6,10.48,5.91L675.73,268l-8.27,26.85-9.59-5.42,8.27-26.85.92-51.69,10.67,6-1.24,23.41-1,10Z"/><path d="M704,231.72l31.11,17.54-5,16.25-10.7-6-17,55.16-9.62-5.43,17-55.16L699,248Z"/><path d="M726.93,328.52l-9.62-5.44,22-71.44,9.63,5.42Z"/><path d="M765,314.91l12.81-41.58,9.49,5.35-22,71.52-9.64-5.45V296.18L742.9,337.55l-9.53-5.39,22-71.47,9.54,5.37Z"/><path d="M802,325.05l15.5,8.75-12,39.12-6.36-3.59,1.5-8a13,13,0,0,1-6.4,4.53,8.93,8.93,0,0,1-7.18-1q-7.34-4.14-9-17.24-1.72-12.89,3.54-30T794.94,293q8.09-7.36,15.93-2.94,6.57,3.71,8.93,12.47t.1,20.47l-9.68-4a20.15,20.15,0,0,0-.24-8.46,7.83,7.83,0,0,0-3.58-4.91q-4-2.25-8,2.35t-7.21,15q-3.37,11-2.92,18.05t4.73,9.52a5.39,5.39,0,0,0,5.94-.18q2.94-1.87,5.39-7.46l-6.71-3.79Z"/><g id="copy"><path d="M1095.45,558l-72.7-40.49,24.39-80.5,16.16,9,4.88-16.1,50.08,27.92L1134.05,493l-17.57,57.94-16.15-9Zm-62.18-44,56.55,31.5,2.44-8.05-48.47-27,17.07-56.35-8.08-4.5Zm21-7.09,56.54,31.49L1123,498.13l-24.23-13.5,7.32-24.15-32.31-18Zm55-25.8,14.54,8.1-10.15-22.58Zm-12.2,40.25-32.31-18,2.44-8.05,32.31,18Zm13-11.6-40.39-22.5,2.44-8.05,40.39,22.5Zm-19.35-29.6-16.16-9,2.44-8.05,16.16,9Z"/></g><path d="M1039.74,688.61,1023,704.74a74.75,74.75,0,0,1,10.57,8.71,72.13,72.13,0,0,1,8.44,10.86l14.25-18.26s-.15-3.29-6.89-10.36C1042.5,688.61,1039.74,688.61,1039.74,688.61Zm-54.43,90.31-.77,7.9,53-59.22a81.42,81.42,0,0,0-7.82-9.71,78.29,78.29,0,0,0-9.51-8.22l-53,59.22,8.28-.5.93,9.54Zm-35.57,25.17,13.18-29,7.36-.66.62,9,8.89,1.31-.92,7.24-26.68,14.48Z"/></g></g></svg>