<svg width="49" height="49" fill="none" xmlns="http://www.w3.org/2000/svg"><g clip-path="url(#a)"><path d="M33.486 17.848a12.036 12.036 0 0 1 2.388 7.202c0 6.737-5.562 12.218-12.398 12.218-6.837 0-12.398-5.481-12.398-12.218 0-6.738 5.561-12.219 12.398-12.219 2.76 0 5.312.893 7.374 2.402l3.572-3.52A17.488 17.488 0 0 0 23.476 7.89c-9.601 0-17.413 7.698-17.413 17.16s7.812 17.16 17.413 17.16c9.601 0 17.412-7.698 17.412-17.16 0-4.055-1.434-7.785-3.828-10.725l-3.574 3.523Z" fill="#607987" fill-opacity=".1"/><path d="M23.88 24.708a16.495 16.495 0 0 1 3.39-5.9 7.421 7.421 0 0 0-3.794-1.035c-4.072 0-7.384 3.264-7.384 7.277 0 4.012 3.312 7.277 7.384 7.277 4.072 0 7.384-3.264 7.384-7.277a7.154 7.154 0 0 0-1.009-3.67 16.865 16.865 0 0 1-5.97 3.328Z" fill="#607987" fill-opacity=".1"/><path d="M47.874 9.767a.917.917 0 0 0 .222-.96.936.936 0 0 0-.78-.615l-3.793-.425-2.454-2.418-.431-3.738a.928.928 0 0 0-.623-.769.947.947 0 0 0-.973.219L35.33 4.719c-.102.102-.2.208-.29.318a23.589 23.589 0 0 0-11.564-3.014c-6.24 0-12.108 2.395-16.521 6.744S.111 18.899.111 25.05c0 6.15 2.43 11.933 6.844 16.283 4.413 4.349 10.28 6.744 16.521 6.744 6.24 0 12.108-2.395 16.521-6.744 4.413-4.35 6.844-10.132 6.844-16.283 0-3.985-1.041-7.883-3.017-11.326.117-.093.23-.192.338-.299l3.712-3.658Zm-5.038 2.348a2.219 2.219 0 0 1-1.816.625l-.92-.103 3.09-3.044 1.98.222-2.334 2.3Zm-12.85 7.873a15.933 15.933 0 0 1-4.442 3.08 15.701 15.701 0 0 1 3.124-4.376L40.311 7.218l1.316 1.298-11.64 11.472ZM23.06 24.21l-.006.005-1.001.987a.917.917 0 0 0-.001 1.309.942.942 0 0 0 .664.271c.24 0 .48-.09.663-.27l1.001-.987.006-.006a17.861 17.861 0 0 0 6.927-4.22l2.026-1.997a11.077 11.077 0 0 1 1.598 5.748c0 6.227-5.14 11.293-11.46 11.293-6.32 0-11.46-5.066-11.46-11.293 0-6.227 5.14-11.293 11.46-11.293 2.102 0 4.125.556 5.904 1.617l-2.038 2.008a17.52 17.52 0 0 0-4.283 6.828ZM38.993 3.726l.225 1.952-3.09 3.046-.105-.907a2.15 2.15 0 0 1 .634-1.788l2.336-2.303Zm5.971 21.324c0 11.676-9.64 21.175-21.488 21.175-11.849 0-21.488-9.499-21.488-21.175 0-11.677 9.64-21.176 21.488-21.176 3.79 0 7.492.979 10.748 2.835-.093.426-.117.87-.066 1.317l.274 2.369-3.69 3.636a13.358 13.358 0 0 0-7.266-2.126c-7.354 0-13.337 5.897-13.337 13.145 0 7.248 5.983 13.144 13.337 13.144s13.337-5.896 13.337-13.144c0-2.534-.729-4.974-2.112-7.092l3.702-3.647 2.405.269a4.235 4.235 0 0 0 1.315-.06 20.9 20.9 0 0 1 2.841 10.53Z" fill="#4E6575"/></g><defs><clipPath id="a"><path fill="#fff" transform="translate(.111 .735)" d="M0 0h48.038v47.396H0z"/></clipPath></defs></svg>